<?xml version="1.0" standalone="no"?>
<!DOCTYPE svg PUBLIC "-//W3C//DTD SVG 1.1//EN" "http://www.w3.org/Graphics/SVG/1.1/DTD/svg11.dtd" >
<svg xmlns="http://www.w3.org/2000/svg">
<metadata>Generated by IcoMoon</metadata>
<defs>
<font id="stmicons" horiz-adv-x="1024">
<font-face units-per-em="1024" ascent="960" descent="-64" />
<missing-glyph horiz-adv-x="1024" />
<glyph unicode="&#x20;" horiz-adv-x="512" d="" />
<glyph unicode="&#xe633;" glyph-name="search2" horiz-adv-x="964" d="M121.526 217.236c36.026-36.072 79.304-64.939 128.777-86.555 50.437-21.616 102.985-31.942 157.598-31.942 84.444 0 160.673 23.681 229.697 71.089l196.746-196.746c14.411-14.411 30.932-21.662 51.493-21.662 20.606 0 37.128 7.251 52.548 21.662 14.411 15.466 21.662 31.942 21.662 52.548 0 19.551-7.251 37.082-21.662 51.493l-196.746 196.746c47.408 69.024 71.089 145.253 71.089 229.697 0 54.613-10.326 107.161-31.942 157.644-21.616 49.427-50.483 92.705-86.509 128.731-36.072 36.072-79.35 64.893-128.777 86.555-50.483 21.616-103.031 31.942-157.598 31.942-54.613 0-107.161-10.326-157.598-31.942-49.473-21.662-92.751-50.483-128.777-86.555-36.072-36.026-64.893-79.304-86.555-128.731-21.616-50.483-31.942-103.031-31.942-157.644 0-54.567 10.326-107.116 31.942-157.598 21.662-49.427 50.483-92.705 86.555-128.731v0zM407.902 761.12c71.043 0 131.852-24.737 182.335-75.22 50.437-50.483 75.174-111.246 75.174-182.335 0-71.043-24.737-131.852-75.174-182.335-50.483-50.437-111.292-75.174-182.335-75.174-71.089 0-131.852 24.737-182.335 75.174-50.483 50.483-75.22 111.292-75.22 182.335 0 71.089 24.737 131.852 75.22 182.335s111.246 75.22 182.335 75.22v0z" />
<glyph unicode="&#xe634;" glyph-name="chevron-left" horiz-adv-x="745" d="M639.069 182.159l-318.57 292.438 318.77 292.172c19.682 18.485 32.316 44.484 32.316 73.542 0 55.057-44.684 99.74-99.74 99.74-25.932 0-49.405-10.174-67.225-26.464l-399.161-365.515c-20.546-18.884-32.316-45.482-32.316-73.475s11.769-54.591 32.316-73.475l398.961-365.781c18.020-16.025 41.492-26.198 67.424-26.198 55.057 0 99.74 44.684 99.74 99.74 0 29.124-12.634 55.057-32.515 73.276z" />
<glyph unicode="&#xe635;" glyph-name="chevron-top" horiz-adv-x="1463" d="M271.882 70.687l459.546 500.611 459.128-500.924c29.048-30.929 69.904-50.782 115.566-50.782 86.518 0 156.735 70.217 156.735 156.735 0 40.751-15.987 77.636-41.587 105.639l-574.38 627.252c-29.675 32.287-71.471 50.782-115.461 50.782s-85.786-18.495-115.461-50.782l-574.798-626.939c-25.182-28.317-41.169-65.202-41.169-105.953 0-86.518 70.217-156.735 156.735-156.735 45.767 0 86.517 19.853 115.148 51.096z" />
<glyph unicode="&#xe636;" glyph-name="chevron-right" horiz-adv-x="745" d="M105.658 767.036l318.57-292.438-318.77-292.172c-19.682-18.485-32.316-44.484-32.316-73.542 0-55.057 44.684-99.74 99.74-99.74 25.932 0 49.405 10.174 67.225 26.464l399.161 365.515c20.546 18.884 32.316 45.482 32.316 73.475s-11.769 54.591-32.316 73.475l-398.961 365.781c-18.020 16.025-41.492 26.198-67.424 26.198-55.057 0-99.74-44.684-99.74-99.74 0-29.124 12.634-55.057 32.515-73.276z" />
<glyph unicode="&#xe637;" glyph-name="chevron-bottom" horiz-adv-x="1463" d="M1190.975 908.904l-459.546-500.611-459.128 500.924c-29.048 30.929-69.904 50.782-115.566 50.782-86.518 0-156.735-70.217-156.735-156.735 0-40.751 15.987-77.636 41.587-105.639l574.38-627.252c29.675-32.287 71.471-50.782 115.461-50.782s85.786 18.495 115.461 50.782l574.798 626.939c25.182 28.317 41.169 65.202 41.169 105.953 0 86.518-70.217 156.735-156.735 156.735-45.767 0-86.517-19.853-115.148-51.096z" />
<glyph unicode="&#xe638;" glyph-name="roundels" d="M768 64c0-70.692 57.451-128 128-128 70.692 0 128 57.451 128 128 0 70.692-57.451 128-128 128-70.692 0-128-57.451-128-128zM192 832c0-35.263-28.715-64-64-64-35.263 0-64 28.715-64 64 0 35.263 28.715 64 64 64 35.263 0 64-28.715 64-64zM576 832c0-35.263-28.715-64-64-64-35.263 0-64 28.715-64 64 0 35.263 28.715 64 64 64 35.263 0 64-28.715 64-64zM960 832c0-35.263-28.715-64-64-64-35.263 0-64 28.715-64 64 0 35.263 28.715 64 64 64 35.263 0 64-28.715 64-64zM192 448c0-35.263-28.715-64-64-64-35.263 0-64 28.715-64 64 0 35.263 28.715 64 64 64 35.263 0 64-28.715 64-64zM576 448c0-35.263-28.715-64-64-64-35.263 0-64 28.715-64 64 0 35.263 28.715 64 64 64 35.263 0 64-28.715 64-64zM960 448c0-35.263-28.715-64-64-64-35.263 0-64 28.715-64 64 0 35.263 28.715 64 64 64 35.263 0 64-28.715 64-64zM192 64c0-35.263-28.715-64-64-64-35.263 0-64 28.715-64 64 0 35.263 28.715 64 64 64 35.263 0 64-28.715 64-64zM576 64c0-35.263-28.715-64-64-64-35.263 0-64 28.715-64 64 0 35.263 28.715 64 64 64 35.263 0 64-28.715 64-64zM960 64c0-35.263-28.715-64-64-64-35.263 0-64 28.715-64 64 0 35.263 28.715 64 64 64 35.263 0 64-28.715 64-64zM0 832c0-70.692 57.451-128 128-128 70.692 0 128 57.451 128 128 0 70.692-57.451 128-128 128-70.692 0-128-57.451-128-128zM384 832c0-70.692 57.451-128 128-128 70.692 0 128 57.451 128 128 0 70.692-57.451 128-128 128-70.692 0-128-57.451-128-128zM768 832c0-70.692 57.451-128 128-128 70.692 0 128 57.451 128 128 0 70.692-57.451 128-128 128-70.692 0-128-57.451-128-128zM0 448c0-70.692 57.451-128 128-128 70.692 0 128 57.451 128 128 0 70.692-57.451 128-128 128-70.692 0-128-57.451-128-128zM384 448c0-70.692 57.451-128 128-128 70.692 0 128 57.451 128 128 0 70.692-57.451 128-128 128-70.692 0-128-57.451-128-128zM768 448c0-70.692 57.451-128 128-128 70.692 0 128 57.451 128 128 0 70.692-57.451 128-128 128-70.692 0-128-57.451-128-128zM0 64c0-70.692 57.451-128 128-128 70.692 0 128 57.451 128 128 0 70.692-57.451 128-128 128-70.692 0-128-57.451-128-128z" />
<glyph unicode="&#xe639;" glyph-name="clock22" d="M458.851 359.904c-6.669 5.838-10.851 14.403-10.851 23.949v256.295c0 17.271 14.327 31.853 32 31.853 17.796 0 32-14.261 32-31.853v-238.565l152.472-88.030c15.076-8.704 20.467-28.36 11.631-43.665-8.898-15.412-28.371-20.571-43.631-11.76l-166.441 96.095c-2.716 1.568-5.119 3.492-7.18 5.682v0zM1024 448c0 282.77-229.23 512-512 512s-512-229.23-512-512c0-282.77 229.23-512 512-512s512 229.23 512 512v0zM64 448c0 247.424 200.576 448 448 448s448-200.576 448-448c0-247.424-200.576-448-448-448s-448 200.576-448 448v0z" />
<glyph unicode="&#xe63a;" glyph-name="calculator" d="M0 895.944v-895.888c0-35.377 28.456-64.056 64.056-64.056h895.888c35.377 0 64.056 28.456 64.056 64.056v895.888c0 35.377-28.456 64.056-64.056 64.056h-895.888c-35.377 0-64.056-28.456-64.056-64.056v0zM288.028 768c-17.689 0-32.028-14.204-32.028-32v0c0-17.673 14.228-32 32.028-32h447.944c17.689 0 32.028 14.204 32.028 32v0c0 17.673-14.228 32-32.028 32h-447.944zM959.944 896c0.142 0 0.056-895.944 0.056-895.944 0-0.142-895.944-0.056-895.944-0.056-0.142 0-0.056 895.944-0.056 895.944 0 0.142 895.944 0.056 895.944 0.056v0zM480.3 512c-17.839 0-32.3-14.187-32.3-32.3v-63.4c0-17.839 14.187-32.3 32.3-32.3h63.4c17.839 0 32.3 14.187 32.3 32.3v63.4c0 17.839-14.187 32.3-32.3 32.3h-63.4zM288.3 512c-17.839 0-32.3-14.187-32.3-32.3v-63.4c0-17.839 14.187-32.3 32.3-32.3h63.4c17.839 0 32.3 14.187 32.3 32.3v63.4c0 17.839-14.187 32.3-32.3 32.3h-63.4zM672.3 512c-17.839 0-32.3-14.187-32.3-32.3v-63.4c0-17.839 14.187-32.3 32.3-32.3h63.4c17.839 0 32.3 14.187 32.3 32.3v63.4c0 17.839-14.187 32.3-32.3 32.3h-63.4zM480.3 288c-17.839 0-32.3-14.187-32.3-32.3v-63.4c0-17.839 14.187-32.3 32.3-32.3h63.4c17.839 0 32.3 14.187 32.3 32.3v63.4c0 17.839-14.187 32.3-32.3 32.3h-63.4zM288.3 288c-17.839 0-32.3-14.187-32.3-32.3v-63.4c0-17.839 14.187-32.3 32.3-32.3h63.4c17.839 0 32.3 14.187 32.3 32.3v63.4c0 17.839-14.187 32.3-32.3 32.3h-63.4zM672.3 288c-17.839 0-32.3-14.187-32.3-32.3v-63.4c0-17.839 14.187-32.3 32.3-32.3h63.4c17.839 0 32.3 14.187 32.3 32.3v63.4c0 17.839-14.187 32.3-32.3 32.3h-63.4z" />
<glyph unicode="&#xe642;" glyph-name="man" horiz-adv-x="838" d="M834.909 96c0 229.766-186.218 416-416 416-229.616 0-416-186.424-416-415.81v-125.568c0-17.673 14.327-32 32-32s32 14.327 32 32v125.568c0 194.043 157.733 351.81 352 351.81 194.434 0 352-157.579 352-352v-125.188c0-17.673 14.327-32 32-32s32 14.327 32 32v125.188zM642.909 736c0 123.712-100.288 224-224 224s-224-100.288-224-224c0-123.712 100.288-224 224-224s224 100.288 224 224v0zM258.909 736c0 88.366 71.634 160 160 160s160-71.634 160-160c0-88.366-71.634-160-160-160s-160 71.634-160 160v0z" />
<glyph unicode="&#xe643;" glyph-name="map-marker" horiz-adv-x="768" d="M512 576c0 70.692-57.308 128-128 128s-128-57.308-128-128c0-70.692 57.308-128 128-128s128 57.308 128 128zM320 576c0 35.346 28.654 64 64 64s64-28.654 64-64c0-35.346-28.654-64-64-64s-64 28.654-64 64zM429.020-36.37c12.057 12.76 25.464 27.396 39.887 43.697 41.164 46.526 82.318 97.182 120.776 150.326 61.19 84.556 109.686 167.328 140.745 245.685 24.498 61.805 37.572 119.576 37.572 172.663 0 243.168-163.712 384-384 384-211.7 0-384-144.324-384-384 0-54.611 14.079-114.41 40.385-178.668 31.16-76.116 78.585-156.508 137.909-238.702 38.447-53.269 79.589-104.12 120.741-150.883 14.418-16.383 27.82-31.1 39.872-43.936 7.291-7.766 12.554-13.222 15.453-16.156 15.325-15.505 43.803-15.547 59.194-0.088 2.904 2.917 8.172 8.341 15.467 16.062zM413.64-11.656c-2.501 2.53-7.362 7.57-14.247 14.903-11.573 12.327-24.496 26.516-38.428 42.348-39.848 45.281-79.706 94.546-116.859 146.022-56.729 78.598-101.846 155.079-131.035 226.379-23.775 58.076-36.271 111.153-36.271 158.004 0 204.403 138.004 320 307.2 320 177.317 0 307.2-111.731 307.2-320 0-45.603-11.591-96.82-33.697-152.59-29.040-73.264-75.127-151.924-133.587-232.707-37.142-51.325-76.988-100.372-116.824-145.396-13.927-15.741-26.845-29.841-38.413-42.085-6.88-7.281-11.737-12.282-14.233-14.79l59.194-0.088z" />
<glyph unicode="&#xe644;" glyph-name="angle-left" horiz-adv-x="595" d="M566.485 14.891l-49.239-47.514c-5.332-7.057-14.113-10.585-21.17-10.585-8.781 0-15.838 3.528-22.816 10.585l-457.579 457.579c-7.057 5.253-10.585 14.035-10.585 21.091 0 8.782 3.528 17.563 10.585 22.895l457.579 457.579c6.978 6.978 14.035 10.506 22.816 10.506 7.057 0 15.838-3.528 21.17-10.506l49.239-49.318c7.057-5.253 10.585-14.035 10.585-21.091 0-8.781-3.528-17.641-10.585-22.895l-385.367-387.17 385.367-385.445c7.057-6.978 10.585-14.035 10.585-22.816 0-8.86-3.528-15.838-10.585-22.895z" />
<glyph unicode="&#xe645;" glyph-name="angle-top" horiz-adv-x="1617" d="M93.421-3.119l-77.523 80.338c-11.513 8.699-17.27 23.027-17.27 34.54 0 14.328 5.757 25.841 17.27 37.226l746.576 746.576c8.571 11.513 22.899 17.27 34.412 17.27 14.328 0 28.655-5.757 37.354-17.27l746.576-746.576c11.385-11.385 17.142-22.899 17.142-37.226 0-11.513-5.757-25.841-17.142-34.54l-80.465-80.338c-8.571-11.513-22.899-17.27-34.412-17.27-14.328 0-28.783 5.757-37.354 17.27l-631.698 628.756-628.884-628.756c-11.385-11.513-22.899-17.27-37.226-17.27-14.456 0-25.841 5.757-37.354 17.27z" />
<glyph unicode="&#xe646;" glyph-name="angle-bottom" horiz-adv-x="1617" d="M1503.166 895.561l77.523-80.338c11.513-8.699 17.27-23.027 17.27-34.54 0-14.328-5.757-25.841-17.27-37.226l-746.576-746.576c-8.571-11.513-22.899-17.27-34.412-17.27-14.328 0-28.655 5.757-37.354 17.27l-746.576 746.576c-11.385 11.385-17.142 22.899-17.142 37.226 0 11.513 5.757 25.841 17.142 34.54l80.465 80.338c8.571 11.513 22.899 17.27 34.412 17.27 14.328 0 28.783-5.757 37.354-17.27l631.698-628.756 628.884 628.756c11.385 11.513 22.899 17.27 37.226 17.27 14.456 0 25.841-5.757 37.354-17.27z" />
<glyph unicode="&#xe647;" glyph-name="angle-right" horiz-adv-x="595" d="M15.681 878.928l49.239 47.514c5.332 7.057 14.113 10.585 21.17 10.585 8.781 0 15.838-3.528 22.816-10.585l457.579-457.579c7.057-5.253 10.585-14.035 10.585-21.091 0-8.782-3.528-17.563-10.585-22.895l-457.579-457.579c-6.978-6.978-14.035-10.506-22.816-10.506-7.057 0-15.838 3.528-21.17 10.506l-49.239 49.318c-7.057 5.253-10.585 14.035-10.585 21.091 0 8.781 3.528 17.641 10.585 22.895l385.367 387.17-385.367 385.445c-7.057 6.978-10.585 14.035-10.585 22.816 0 8.86 3.528 15.838 10.585 22.895z" />
<glyph unicode="&#xe648;" glyph-name="list" horiz-adv-x="768" d="M224 352h320v96h-320v-96zM672 896h-96v16c0 26.496-21.504 48-48 48s-48-21.504-48-48v-16h-192v16c0 26.496-21.472 48-48 48-26.496 0-48-21.504-48-48v-16h-96c-53.024 0-96-42.976-96-96v-832c0-17.696 14.336-32 32-32h704c17.696 0 32 14.304 32 32v832c0 53.024-42.976 96-96 96v0zM96 576h576v-544h-576v544zM672 672h-576v128h96v-64h96v64h192v-64h96v64h96v-128zM224 160h320v96h-320v-96z" />
<glyph unicode="&#xe649;" glyph-name="badge" d="M736 576c52.992 0 96 43.008 96 96 0 53.056-43.008 96-96 96-53.056 0-96-42.944-96-96 0-52.992 42.944-96 96-96v0zM960 960h-384c-17.664 0-33.664-7.104-45.248-18.688l-512-512.064c-11.584-11.52-18.752-27.584-18.752-45.184 0-17.728 7.168-33.728 18.752-45.312l384-384c11.584-11.584 27.584-18.752 45.248-18.752s33.664 7.168 45.248 18.752l512 512.064c11.584 11.52 18.752 27.52 18.752 45.184v384c0 35.392-28.672 64-64 64v0zM896 538.56l-448-448-293.504 293.504 448 447.936h293.504v-293.44z" />
<glyph unicode="&#xe64a;" glyph-name="calendar4" d="M640 192h128v128h-128v-128zM800 832c17.664 0 32 14.336 32 32v96h-64v-96c0-17.664 14.336-32 32-32v0zM640 384h128v128h-128v-128zM448 384h128v128h-128v-128zM224 832c17.664 0 32 14.336 32 32v96h-64v-96c0-17.664 14.336-32 32-32v0zM256 192h128v128h-128v-128zM448 192h128v128h-128v-128zM896 948.224v-84.224c0-52.992-43.008-96-96-96s-96 43.008-96 96v96h-384v-96c0-52.992-43.008-96-96-96s-96 43.008-96 96v84.224c-74.368-26.432-128-96.768-128-180.224v-640c0-106.048 85.952-192 192-192h640c106.048 0 192 85.952 192 192v640c0 83.456-53.568 153.792-128 180.224v0zM896 128c0-35.328-28.672-64-64-64h-640c-35.328 0-64 28.672-64 64v512h768v-512zM256 384h128v128h-128v-128z" />
<glyph unicode="&#xe64b;" glyph-name="eye3" horiz-adv-x="1638" d="M819.2 652.8c-113.152 0-204.8-91.648-204.8-204.8 0-113.050 91.648-204.8 204.8-204.8 113.050 0 204.8 91.75 204.8 204.8 0 113.152-91.75 204.8-204.8 204.8v0zM819.2 960c-452.403 0-819.2-409.498-819.2-512 0-102.4 366.797-512 819.2-512s819.2 409.6 819.2 512c0 102.502-366.797 512-819.2 512v0zM819.2 38.4c-226.202 0-409.6 183.398-409.6 409.6 0 226.304 183.398 409.6 409.6 409.6s409.6-183.296 409.6-409.6c0-226.202-183.398-409.6-409.6-409.6v0z" />
<glyph unicode="&#xe64c;" glyph-name="comments" d="M496.256 255.552h-52.992l-152.32-129.152-33.216 129.152h-129.728v256l192 0.192v128.256h-192c-70.656 0-128-57.344-128-128v-256c0-70.72 57.344-128 128-128h21.312l42.688-192 298.688 192h21.312c4.224 0 8.192 0.832 12.352 1.216l-28.096 126.336zM896 960h-384c-70.72 0-128-57.28-128-128v-256c0-70.72 57.28-128 128-128h21.312l42.688-192 298.688 192h21.312c70.72 0 128 57.28 128 128v256c0 70.72-57.28 128-128 128zM896 575.552h-68.736l-152.32-129.152-33.216 129.152h-129.728v256h384v-256z" />
<glyph unicode="&#xe64d;" glyph-name="user" horiz-adv-x="956" d="M782.609 369.425c22.665 54.818 36.591 115.644 36.591 180.975 0 226.167-152.849 409.6-341.333 409.6-188.553 0-341.333-183.433-341.333-409.6 0-65.331 13.858-126.157 36.523-180.975-104.926-87.654-173.056-217.771-173.056-365.158 0-37.751 30.515-68.335 68.267-68.335 37.683 0 68.267 30.583 68.267 68.335 0 98.099 41.984 185.958 108.271 248.218 61.099-68.813 142.677-111.753 233.062-111.753 90.317 0 171.895 42.94 232.994 111.753 66.287-62.259 108.339-150.118 108.339-248.218 0-37.751 30.515-68.335 68.267-68.335 37.683 0 68.267 30.583 68.267 68.335 0 147.388-68.198 277.504-173.124 365.158v0zM477.867 277.265c-113.118 0-204.8 122.266-204.8 273.135 0 150.801 91.682 272.998 204.8 272.998s204.8-122.197 204.8-272.998c0-150.869-91.682-273.135-204.8-273.135v0z" />
<glyph unicode="&#xe64e;" glyph-name="reply2" d="M448.219 925.127l-0.257-217.69c0.013-18.38-14.303-33.291-31.976-33.304s-32.011 14.876-32.023 33.256l0.257 217.69 54.57-23.568-362.295-374.877 0.058 47.125 362.039-376.52-54.627-23.533v237.138c0 18.38 14.327 33.28 32 33.28s32-14.9 32-33.28v-237.138c0-29.649-34.469-44.498-54.627-23.533l-362.039 376.52c-12.519 13.020-12.493 34.138 0.058 47.125l362.295 374.877c20.174 20.875 54.549 6.029 54.57-23.568zM608 672.536c224-0.536 351.043-128.536 352-288.536l0.001-416.253 63.496 5.905c-2.344 13.063-7.835 34.77-17.498 62.3-15.997 45.574-77.999 412.263-362.788 412.263-7.443 0-7.443 0-14.95 0-11.214 0-11.214 0-22.213 0-16.397 0-172.215 0-186.849 0-17.673 0-32-14.327-32-32s14.327-32 32-32c14.633 0 170.451 0 186.849 0 11 0 11 0 22.213 0 7.507 0 7.507 0 14.95 0 218.268 0 288.199-329.005 302.4-369.46 4.957-14.121 8.853-27.186 11.798-38.83 1.715-6.779 2.708-11.425 3.094-13.576 6.922-38.577 63.806-33.287 63.496 5.905 0 0-0.38 168.533-0.19 415.747s-191.809 352.006-414.481 352.311c-222.671 0.306-184.775 0.325-193.276 0.326-17.673 0-32-14.327-32-32s14.327-32 32-32c8.489-0.001 191.259-0.099 191.947-0.101v0 0z" />
<glyph unicode="&#xe64f;" glyph-name="layers" horiz-adv-x="896" d="M29.12 587.712l-0.64-0.96 384-256.064 0.64 1.024c10.176-6.784 21.696-11.712 34.88-11.712 13.12 0 24.64 4.928 34.816 11.712l0.704-1.024 384 256.064-0.704 0.96c17.152 11.456 29.184 30.080 29.184 52.288 0 22.144-12.032 40.768-29.184 52.224l0.704 1.024-384 255.936-0.704-0.96c-10.176 6.784-21.696 11.776-34.816 11.776-13.184 0-24.704-4.992-34.88-11.776l-0.64 0.96-384-255.936 0.64-1.024c-17.152-11.456-29.12-30.080-29.12-52.224 0-22.208 11.968-40.832 29.12-52.288v0zM448 819.072l268.608-179.072-268.608-179.136-268.608 179.136 268.608 179.072zM832 320c-13.184 0-24.704-4.992-34.88-11.776l-0.64 0.96-348.48-232.32-348.48 232.32-0.704-0.96c-10.176 6.784-21.696 11.776-34.816 11.776-35.392 0-64-28.672-64-64 0-22.208 11.968-40.832 29.12-52.288l-0.64-0.96 384-256.064 0.64 1.024c10.176-6.784 21.696-11.712 34.88-11.712 13.12 0 24.64 4.928 34.816 11.712l0.704-1.024 384 256.064-0.704 0.96c17.152 11.456 29.184 30.080 29.184 52.288 0 35.328-28.672 64-64 64v0zM832 512c-13.184 0-24.704-4.992-34.88-11.776l-0.64 1.024-348.48-232.384-348.48 232.384-0.704-1.024c-10.176 6.784-21.696 11.776-34.816 11.776-35.392 0-64-28.672-64-64.064 0-22.144 11.968-40.768 29.12-52.224l-0.64-0.96 384-256 0.64 0.96c10.176-6.848 21.696-11.712 34.88-11.712 13.12 0 24.64 4.864 34.816 11.712l0.704-0.96 384 256-0.704 0.96c17.152 11.456 29.184 30.080 29.184 52.224 0 35.392-28.672 64.064-64 64.064v0z" />
<glyph unicode="&#xe650;" glyph-name="clock-2" horiz-adv-x="896" d="M448 704.064c-35.328 0-64-28.672-64-64.064v-165.44l-109.248-109.312c-11.584-11.52-18.752-27.52-18.752-45.248 0-35.328 28.608-63.936 64-63.936 17.664 0 33.664 7.104 45.248 18.752l128 127.936c11.584 11.584 18.752 27.584 18.752 45.248v192c0 35.392-28.672 64.064-64 64.064v0zM704 814.976v81.088c0 35.328-28.672 63.936-64 63.936h-384c-35.328 0-64-28.608-64-63.936v-81.088c-115.84-81.024-192-214.912-192-366.976 0-152 76.16-285.952 192-366.912v-81.088c0-35.328 28.672-64 64-64h384c35.328 0 64 28.672 64 64v81.088c115.84 80.96 192 214.912 192 366.912 0 152.064-76.16 285.952-192 366.976v0zM448 128c-176.768 0-320 143.296-320 320 0 176.768 143.232 320 320 320 176.704 0 320-143.232 320-320 0-176.704-143.296-320-320-320v0z" />
<glyph unicode="&#xe651;" glyph-name="arrow-top-bottom" horiz-adv-x="614" d="M307.124 952.718c-20.177 0-39.443-8.040-53.703-22.225l-225.052-228.769c-29.658-29.582-29.658-77.596 0-107.255 29.658-29.582 77.824-29.582 107.482 0l171.273 175.142 176.659-175.749c29.658-29.658 77.748-29.658 107.482 0 29.658 29.658 29.658 77.596 0 107.255l-230.362 229.376c-14.26 14.184-33.602 22.225-53.779 22.225zM307.124-42.78c-20.177 0-39.443 8.040-53.703 22.225l-225.052 228.769c-29.658 29.582-29.658 77.596 0 107.255 29.658 29.582 77.824 29.582 107.482 0l171.273-175.142 176.659 175.749c29.658 29.658 77.748 29.658 107.482 0 29.658-29.658 29.658-77.596 0-107.255l-230.362-229.376c-14.26-14.184-33.602-22.225-53.779-22.225z" />
<glyph unicode="&#xe652;" glyph-name="arrow-bottom" horiz-adv-x="709" d="M350.085-55.248c-48.312 0-87.521 39.21-87.521 87.521v787.692c0 48.312 39.21 87.521 87.521 87.521s87.521-39.21 87.521-87.521v-787.692c0-48.312-39.21-87.521-87.521-87.521zM354.549-55.598c23.281 0 45.511 9.277 61.965 25.644l259.676 263.964c34.221 34.133 34.221 89.534 0 123.755-34.221 34.133-89.797 34.133-124.018 0l-197.623-202.087-203.837 202.787c-34.221 34.221-89.709 34.221-124.018 0-34.221-34.221-34.221-89.534 0-123.755l265.802-264.665c16.454-16.366 38.772-25.644 62.053-25.644z" />
<glyph unicode="&#xe653;" glyph-name="arrow-top2" horiz-adv-x="709" d="M358.838 951.248c48.312 0 87.521-39.21 87.521-87.521v-787.692c0-48.312-39.21-87.521-87.521-87.521s-87.521 39.21-87.521 87.521v787.692c0 48.312 39.21 87.521 87.521 87.521zM354.374 951.598c-23.281 0-45.511-9.277-61.965-25.644l-259.676-263.964c-34.221-34.133-34.221-89.534 0-123.755 34.221-34.133 89.797-34.133 124.018 0l197.623 202.087 203.837-202.787c34.221-34.221 89.709-34.221 124.018 0 34.221 34.221 34.221 89.534 0 123.755l-265.802 264.665c-16.454 16.366-38.772 25.644-62.053 25.644z" />
<glyph unicode="&#xe65b;" glyph-name="clock3" horiz-adv-x="703" d="M288.183 639.451c0 17.371 13.714 32.549 32.549 32.549 19.017 0 32.549-13.714 32.549-32.549s-13.714-32.549-32.549-32.549c-18.834 0-32.549 15.177-32.549 32.549zM288.183 256.549c0 17.371 13.714 32.549 32.549 32.549 19.017 0 32.549-13.714 32.549-32.549s-13.714-32.549-32.549-32.549c-18.834 0-32.549 14.994-32.549 32.549zM96.549 448.183c0 17.371 13.714 32.549 32.549 32.549 17.371 0 32.549-13.714 32.549-32.549s-13.714-32.549-32.549-32.549c-18.651-0.183-32.549 14.811-32.549 32.549zM479.817 448.183c0 17.371 13.714 32.549 32.549 32.549 18.651 0 32.549-13.714 32.549-32.549s-13.714-32.549-32.549-32.549-32.549 14.811-32.549 32.549zM152.869 312.869c0 17.371 13.714 32.549 32.549 32.549 17.371 0 32.549-13.714 32.549-32.549 0-17.371-13.714-32.549-32.549-32.549s-32.549 14.811-32.549 32.549zM152.869 583.314c0 17.371 13.714 32.549 32.549 32.549 17.371 0 32.549-13.714 32.549-32.549 0-17.371-13.714-32.549-32.549-32.549-18.834 1.28-32.549 14.811-32.549 32.549zM423.314 312.869c0 17.371 13.714 32.549 32.549 32.549 17.371 0 32.549-13.714 32.549-32.549 0-17.371-13.714-32.549-32.549-32.549-17.554 0-32.549 14.811-32.549 32.549zM640 511.817c-2.56 0-3.84-1.28-6.4-1.28-11.337 56.32-37.669 105.143-73.874 146.286l-46.263 250.514c-5.12 29.989-32.549 52.663-62.72 52.663h-255.269c-31.269 0-57.6-22.491-62.72-52.663l-44.983-241.554c-53.76-57.6-87.771-132.754-87.771-217.966 0-82.651 32.549-156.526 83.931-214.126l45.166-245.211c5.12-29.989 32.549-52.663 62.72-52.663h255.269c31.269 0 57.6 22.491 62.72 52.663l44.983 245.394c37.669 41.143 65.28 93.806 77.531 151.406 2.56 0 3.84-1.28 6.4-1.28 35.109 0 64 28.891 64 64 0.914 34.926-27.794 63.817-62.72 63.817zM195.474 896.366h255.269l32.549-172.617c-47.543 27.611-101.303 43.703-160.183 43.703s-112.64-16.274-160.183-43.703l32.549 172.617zM448.366 0h-256.549l-31.269 172.617c47.543-27.611 101.303-43.703 160.183-43.703s112.64 17.371 160.183 43.703l-32.549-172.617zM319.451 192.549c-140.251 0-255.269 113.92-255.269 255.269s115.2 255.269 255.269 255.269 256.549-113.92 256.549-255.269-115.2-255.269-256.549-255.269zM478.537 607.086c3.84-3.84 3.84-10.057 1.28-13.714l-77.531-96.366-58.88-71.314c-6.4-6.4-13.714-8.777-22.491-8.777s-16.274 3.84-22.491 8.777c-6.4 6.4-8.777 13.714-8.777 22.491s3.84 16.274 10.057 22.491l166.583 136.411c2.011 3.84 8.411 3.84 12.251 0z" />
<glyph unicode="&#xe669;" glyph-name="bag2" horiz-adv-x="924" d="M776.533 800.711l2.844 2.844c39.822 22.756 65.422 42.667 76.8 59.733 5.689 8.533 5.689 17.067 5.689 22.756-2.844 5.689-5.689 14.222-19.911 22.756l-11.378 5.689c-11.378 5.689-19.911 5.689-25.6 5.689-5.689-2.844-11.378-5.689-19.911-19.911-8.533-19.911-14.222-51.2-11.378-88.178l2.844-11.378zM768 749.511v0h-603.022v42.667h568.889v5.689c-2.844 45.511 0 88.178 14.222 119.467 8.533 19.911 22.756 34.133 42.667 39.822s42.667 0 65.422-11.378v0c25.6-14.222 39.822-31.289 45.511-51.2s0-39.822-8.533-56.889c-22.756-31.289-68.267-59.733-125.156-88.178zM833.422 567.467l-2.844 25.6c-2.844 48.356-39.822 85.333-85.333 85.333h-568.889c-39.822 0-68.267-25.6-79.644-68.267l-5.689-39.822h28.444v2.844c2.844 22.756 11.378 42.667 25.6 56.889 19.911 19.911 45.511 31.289 76.8 28.444h480.711c34.133 2.844 59.733-11.378 79.644-34.133 14.222-17.067 19.911-36.978 22.756-59.733l28.444 2.844zM153.6 15.644v39.822h588.8v-39.822h-588.8zM799.289-21.333c39.822 0 73.956 28.444 82.489 68.267l2.844 17.067-45.511 466.489h-51.2l-19.911 19.911c0 22.756-5.689 39.822-14.222 54.044-8.533 11.378-25.6 19.911-45.511 19.911h-483.556c-22.756 0-36.978-5.689-45.511-17.067-11.378-11.378-17.067-28.444-19.911-54.044l-19.911-19.911h-54.044l-45.511-472.178 2.844-17.067c8.533-39.822 42.667-68.267 82.489-68.267h674.133zM125.156-64c-68.267 0-125.156 56.889-125.156 125.156v2.844l51.2 531.911c8.533 68.267 54.044 122.311 125.156 122.311h568.889c71.111 0 122.311-59.733 125.156-122.311l51.2-531.911v-2.844c0-68.267-56.889-125.156-125.156-125.156h-671.289z" />
<glyph unicode="&#xe670;" glyph-name="map2" horiz-adv-x="820" d="M409.417 755.2c-113.006 0-204.983-91.794-204.983-204.983s91.794-204.983 204.983-204.983 204.983 91.794 204.983 204.983-91.977 204.983-204.983 204.983zM409.417 413.806c-75.337 0-136.411 61.074-136.411 136.411s61.074 136.411 136.411 136.411 136.411-61.074 136.411-136.411-60.891-136.411-136.411-136.411zM787.017 709.851c-20.663 48.823-50.286 92.526-87.771 130.194s-81.371 67.109-130.194 87.771c-50.469 21.394-104.229 32.366-159.451 32.366s-108.983-10.789-159.451-32.366c-48.823-20.663-92.526-50.286-130.194-87.771s-67.109-81.371-87.771-130.194c-21.394-50.469-32.366-104.229-32.366-159.451 0-89.417 28.343-174.446 81.92-245.943 0.366-0.731 0.914-1.097 1.28-1.646l273.006-341.211c12.983-16.274 32.731-25.6 53.577-25.6s40.594 9.509 53.577 25.6l273.006 341.211c0.366 0.731 0.914 1.097 1.28 1.646 53.76 71.497 82.103 156.343 82.103 245.943-0.549 55.223-11.337 108.983-32.549 159.451zM682.423 345.6l-273.006-341.211-273.006 341.211c-42.971 57.051-68.206 128-68.206 204.8 0 188.526 152.686 341.211 341.211 341.211s341.211-152.686 341.211-341.211c0.183-76.983-25.417-147.749-68.206-204.8z" />
<glyph unicode="&#xe671;" glyph-name="phone22" horiz-adv-x="580" d="M580.267 915.627c0 23.893-20.48 44.373-40.96 44.373h-498.347c-20.48 0-40.96-20.48-40.96-44.373v-938.667c0-20.48 20.48-40.96 40.96-40.96h494.933c23.893 0 40.96 20.48 40.96 44.373v935.253h3.413zM187.733 925.867h204.8c10.24 0 17.067-6.827 17.067-17.067s-6.827-17.067-17.067-17.067h-204.8c-10.24 0-17.067 6.827-17.067 17.067s6.827 17.067 17.067 17.067v0zM290.133-29.867c-27.307 0-51.2 23.893-51.2 51.2s23.893 51.2 51.2 51.2c27.307 0 51.2-23.893 51.2-51.2s-23.893-51.2-51.2-51.2v0zM546.133 106.667h-512v750.933h512v-750.933z" />
<glyph unicode="&#xe673;" glyph-name="bon-phrase" horiz-adv-x="1023" d="M283.892 490.403c-29.789 0-53.946-23.785-53.946-53.108s24.204-53.015 53.946-53.015 53.946 23.785 53.946 53.062-24.157 53.062-53.946 53.062zM483.060 490.403c-29.789 0-53.946-23.785-53.946-53.062s24.204-53.062 53.946-53.062c29.789 0 53.946 23.785 53.946 53.062s-24.157 53.062-53.946 53.062zM1012.189 115.153l-59.718 160.396c18.897 51.759 28.439 106.077 28.439 161.792 0 264.378-218.671 479.465-487.471 479.465-268.847-0.047-487.564-215.133-487.564-479.465s218.717-479.465 487.564-479.465c97.28 0 192.931 29.184 273.268 82.665l119.901-46.173c15.36-5.911 30.441-8.937 44.916-8.937 30.022 0 56.553 13.126 72.797 36.073 10.473 14.615 25.414 46.406 7.866 93.649zM931.572 50.688c-5.958 0-12.847 1.443-20.666 4.561l-154.019 59.206c-72.145-57.018-163.654-91.276-263.447-91.276-232.634 0-421.19 185.391-421.19 414.115s188.556 414.161 421.19 414.161c232.541 0 421.143-185.391 421.143-414.161 0-57.111-11.776-111.523-33.047-161.047l68.375-183.622c9.635-25.879 1.443-41.937-18.339-41.937zM682.182 490.403c-29.743 0-53.9-23.785-53.9-53.062s24.204-53.062 53.9-53.062c29.836 0 53.946 23.785 53.946 53.062s-24.111 53.062-53.946 53.062z" />
<glyph unicode="&#xe674;" glyph-name="bon-soup" horiz-adv-x="1122" d="M105.082 338.042c1.56 0 1.56 2.438 0 2.438-1.585 0-1.585-2.438 0-2.438zM34.182 304.567c-0.902 0-0.902-1.414 0-1.414s0.902 1.414 0 1.414zM1106.822 233.326c0.122 19.358-29.379 29.964-39.595 10.484-1.707-3.316-3.682-6.388-5.608-9.484-0.853 0.707-1.438 1.536-2.487 2.146-83.529 47.226-175.714 70.973-270.799 78.214 23.284 25.429 44.008 53.272 63.586 81.506 46.007 66.316 79.482 149.748 60.83 230.766-1.609 6.997-8.972 12.532-16.14 12.264-156.623-5.705-284.233-174.348-286.744-323.56-0.341-19.675 28.258-18.92 30.062 0 7.144 76.020 44.763 141.239 94.135 197.778 26.331 30.135 164.376 143.238 146.432 40.131-20.187-115.858-127.756-209.701-212.431-281.064-7.753-6.558-8.046-18.846-3.511-27.136-1.926 3.535 7.119-31.378 13.702-55.272-30.842 7.558-62.952 10.167-93.989 17.481-29.623 6.973-58.856 16.872-87.796 26.502 23.918 26.38 55.906 37.742 92.94 42.447 19.651 2.536 20.382 29.403 0 31.061-55.077 4.535-106.252-31.842-128.853-80.067-4.608-9.899 3.389-18.505 11.557-18.432 0.878-0.683 1.56-1.487 2.682-1.999 62.123-28.55 143.579-63.269 212.919-46.836 1.902 0.439 3.511 1.243 4.852 2.243 7.899-1.78 17.335 4.291 15.116 14.848-13.166 63.195 11.41 71.924 52.078 108.69 3.486 3.17 6.656 6.632 10.045 9.899 1.341-1.536 3.048-2.853 5.534-3.365 83.456-17.018 164.206-37.766 240.835-74.167-142.36-34.133-277.845-69.242-429.69-73.265-175.372-4.632-353.743 23.82-509.659 105.643 0.366 1.926 0.634 3.901 0.878 5.851 0.268 2.292-0.122 4.462-0.853 6.534 81.067 29.452 162.523 44.495 250.709 51.907 82.944 6.949 172.008-6.534 252.587 14.897 9.216 2.462 9.143 16.043 0 18.53-163.791 44.642-405.699 14.068-554.155-73.411-4.34 2.17-10.801-0.78-11.386-6.632v-0.122c-8.997-6.168-7.534-16.262-1.292-21.675-5.022-230.814 292.328-294.766 476.77-300.422 195.608-6.022 519.192 48.421 606.964 256.61 2.755 1.585 5.681 3.023 8.387 4.657 10.898 6.558 9.143 19.529 1.39 25.819zM529.31-2.17c-179.2-3.316-418.938 48.64-488.082 233.838 4.681-1.56 9.63-2.462 15.092-1.682-3.267-0.853-2.024-0.756 3.657 0.268 0.707 0.195 1.219 0.585 1.853 0.853 130.316-101.571 307.785-123.563 468.553-128 143.677-3.95 329.338 5.388 477.623 58.929-117.589-123.636-312.808-161.158-478.696-164.206zM160.744 257.146c-14.214-1.95-10.874-26.307 3.389-25.015 48.274 4.34 95.671 13.068 143.458 21.090 56.418 9.509 107.276 6.778 163.718 4.242 12.995-0.561 14.19 17.749 2.926 21.626-98.499 33.963-214.626-8.387-313.49-21.943zM823.515 216.015c9.996-2.121 19.846-5.583 28.916-10.264 7.704-3.974 11.41-8.558 20.578-7.485 6.144 0.707 11.045 4.559 11.191 11.191 0.902 43.057-91.453 36.157-117.516 35.279-15.092-0.512-15.092-22.869 0-23.406 19.090-0.634 38.083-1.365 56.832-5.315zM50.981 582.485c71.68-39.131 74.557-154.917 172.203-151.845 17.384 0.536 19.432 23.454 3.95 29.135-37.937 13.946-52.078 47.86-67.901 82.237-17.262 37.522-39.96 72.899-78.994 90.453-33.353 15.019-62.659-31.744-29.257-49.981zM241.591 766.269c54.491-60.806 82.091-120.515 66.926-201.24-16.36-87.064 30.306-126.001 111.909-144.482 14.385-3.267 25.21 18.359 10.508 24.893-70.558 31.281-79.311 68.413-63.293 136.899 9.070 38.693 6.046 71.924-7.607 109.032-26.746 72.631-102.644 174.446-173.592 208.725-15.726 7.582-35.938-4.827-30.525-23.479 13.141-45.422 54.882-76.020 85.675-110.348zM539.404 594.286c-22.333-32.67-20.431-69.12-11.532-105.545 3.974-16.189 29.891-12.849 29.184 3.95-3.877 91.819 99.401 125.294 94.135 221.55-4.974 91.185-107.349 123.49-111.47 215.089-0.926 20.553-28.453 29.403-39.4 10.679-47.909-82.018 34.645-130.462 78.19-189.464 46.348-62.781-5.827-107.593-39.107-156.258z" />
<glyph unicode="&#xe675;" glyph-name="bon-clock" horiz-adv-x="1027" d="M518.477 960.41c-277.862 0-503.962-229.837-503.962-512.358s226.099-512.358 503.962-512.358c277.914 0 504.013 229.837 504.013 512.358s-226.099 512.358-504.013 512.358zM518.477 19.149c-232.55 0-421.837 192.461-421.837 428.902 0 236.493 189.235 428.902 421.837 428.902s421.837-192.41 421.837-428.902c0.051-236.442-189.235-428.902-421.837-428.902zM741.504 586.803l-201.165-141.312v313.651c0 15.053-12.032 27.29-26.829 27.29-14.848 0-26.829-12.237-26.829-27.29v-365.722c0-10.138 5.53-19.405 14.387-24.166 3.891-2.099 8.192-3.174 12.493-3.174 5.325 0 10.65 1.638 15.258 4.864l243.251 170.854c12.186 8.602 15.258 25.6 6.861 37.939-8.55 12.442-25.242 15.565-37.427 7.066z" />
<glyph unicode="&#xe676;" glyph-name="bon-chevron-bottom" horiz-adv-x="2048" d="M1821.867 884.565l-797.867-553.984-797.867 553.984-84.651-191.317 882.517-612.523 882.688 612.523z" />
<glyph unicode="&#xe677;" glyph-name="bon-calendar" horiz-adv-x="976" d="M877.978 871.526h-98.611v52.48c0 20.275-15.821 36.659-35.226 36.659-19.507 0-35.277-16.384-35.277-36.659v-52.429h-443.904v52.429c0 20.275-15.821 36.659-35.277 36.659s-35.277-16.384-35.277-36.659v-52.429h-98.662c-52.838 0-95.795-44.646-95.795-99.482v-737.178c0-54.835 42.957-99.482 95.795-99.482h782.234c52.838 0 95.846 44.646 95.846 99.482v737.126c0.051 54.835-42.957 99.482-95.846 99.482zM903.27 34.867c0-14.438-11.315-26.163-25.242-26.163h-782.285c-13.926 0-25.19 11.725-25.19 26.163v571.75h832.717v-571.75zM903.27 679.885h-832.717v92.16c0 14.438 11.264 26.214 25.19 26.214h98.611v-41.83c0-20.275 15.821-36.659 35.277-36.659s35.277 16.384 35.277 36.659v41.83h443.904v-41.83c0-20.275 15.821-36.659 35.277-36.659s35.226 16.384 35.226 36.659v41.83h98.611c13.926 0 25.242-11.725 25.242-26.214v-92.16zM251.853 434.278c3.379 0 6.861 0.512 10.291 1.587l18.125 5.734v-315.392c0-20.224 15.77-36.608 35.277-36.608s35.277 16.384 35.277 36.659v364.851c0 0.256 0 0.512 0 0.768 0 0.307 0 0.666 0 1.024 0 0.666-0.051 1.28-0.102 1.894 0 0.205-0.051 0.358-0.051 0.563 0 0.41-0.051 0.819-0.154 1.178s-0.205 0.768-0.256 1.229l-0.102 0.41c-0.154 0.819-0.307 1.536-0.512 2.355-0.051 0.256-0.154 0.512-0.205 0.819 0 0.154-0.051 0.256-0.102 0.41-0.154 0.512-0.307 0.922-0.461 1.382-0.102 0.307-0.205 0.614-0.307 0.922-0.205 0.512-0.461 1.126-0.666 1.69-0.102 0.256-0.205 0.512-0.307 0.768-0.358 0.666-0.666 1.382-1.024 2.099-1.894 3.635-4.352 6.861-7.27 9.574 0 0 0 0.051-0.051 0.051-0.307 0.307-0.666 0.614-0.973 0.922-0.154 0.102-0.205 0.205-0.358 0.307-0.205 0.154-0.512 0.358-0.768 0.563-0.205 0.205-0.41 0.358-0.614 0.512-0.154 0.154-0.307 0.256-0.512 0.41-0.256 0.205-0.614 0.461-0.922 0.614l-0.205 0.154c-3.686 2.509-7.834 4.352-12.288 5.274-0.717 0.205-1.485 0.307-2.202 0.41-0.256 0.051-0.512 0.102-0.819 0.102-0.563 0.051-1.178 0.154-1.741 0.154-0.307 0.051-0.614 0.051-0.87 0.051-0.461 0.051-0.973 0.051-1.434 0.051h-0.461c-0.256 0-0.512 0-0.819-0.051-0.768 0-1.536-0.051-2.304-0.154-0.154 0-0.307 0-0.461-0.051-0.358-0.051-0.768-0.102-1.126-0.154-0.41-0.051-0.819-0.102-1.178-0.205-0.154 0-0.307-0.051-0.461-0.102-0.614-0.102-1.229-0.256-1.843-0.41-0.307-0.102-0.614-0.205-0.922-0.307l-0.717-0.154-0.461-0.205-63.181-19.968c-18.688-5.837-29.184-26.368-23.501-45.722 4.659-15.77 18.637-26.010 33.741-26.010zM529.92 108.083c22.682-12.288 46.797-18.483 71.782-18.483 24.934 0 49.101 6.195 71.731 18.483 21.248 11.52 40.243 27.853 56.371 48.486 32 40.96 49.613 94.925 49.613 152.115 0 57.088-17.613 111.104-49.613 152.064-16.077 20.634-35.123 37.018-56.371 48.486-22.63 12.288-46.797 18.483-71.731 18.483-24.986 0-49.101-6.195-71.782-18.483-21.248-11.469-40.243-27.853-56.371-48.486-32-40.96-49.562-94.925-49.562-152.064s17.613-111.155 49.562-152.115c16.128-20.634 35.123-36.966 56.371-48.486zM528.384 414.618c20.122 25.702 46.080 39.834 73.318 39.834s53.197-14.131 73.318-39.834c21.811-27.955 33.792-65.587 33.792-105.882 0-40.397-11.981-77.978-33.792-105.933-20.122-25.702-46.080-39.834-73.318-39.834s-53.197 14.131-73.318 39.834c-21.811 27.955-33.843 65.536-33.843 105.933 0 40.243 12.032 77.926 33.843 105.882z" />
<glyph unicode="&#xe678;" glyph-name="bon-guitar" horiz-adv-x="1046" d="M1039.142 862.96l-95.406 93.968c-8.671 4.292-21.7 4.292-30.393 0l-34.663-34.162-17.364 17.081-13.007-21.351 17.343-17.081-17.343-17.081-21.7 17.103-17.343-17.103 17.343-17.081-34.685-34.162c-8.693-8.541-8.693-21.351 0-29.914l-146.759-144.558c-46.015 30.807-97.149 46.298-143.839 46.298-47.692 0-91.092-17.059-125.778-46.973-17.343-17.081-34.685-42.725-39.043-68.368-17.343-51.287-65.057-85.45-117.106-85.45-60.721 0-112.771-21.33-156.127-59.806-99.764-98.239-78.064-277.657 47.692-397.29 73.728-72.617 164.799-111.071 247.22-111.071 60.721 0 117.106 21.351 160.485 59.806 39.043 38.433 60.699 93.968 60.699 153.818 0 55.514 34.729 102.509 86.757 115.342 25.992 8.562 47.692 21.351 69.414 38.454 66.081 65.1 63.749 176.193 0.893 265.761l146.563 144.34c8.671-8.562 21.7-8.562 30.393 0l34.685 34.162 17.321-17.081 17.364 17.081-17.364 17.103 17.364 17.059 17.364-12.789 17.343 17.059-17.343 17.081 39.021 29.914c8.693 8.519 8.693 21.33 0 29.892zM687.823 350.35c-13.007-12.811-25.992-17.103-43.357-25.665-78.085-21.351-130.135-93.99-134.449-179.418 0-29.914-8.693-72.617-43.378-106.801-34.685-34.141-82.399-42.703-112.771-42.703-69.392 0-143.12 34.141-199.506 89.698-99.764 98.26-121.442 234.954-47.714 307.592 34.685 34.162 78.064 42.703 108.435 42.703 86.757 0 156.149 55.557 182.163 132.445 4.336 17.081 13.007 29.914 26.036 42.725 26.014 25.644 56.364 29.914 78.064 29.914 32.942 0 65.885-10.305 96.67-28.672l-123.991-122.139c-5.251 0.784-10.567 1.329-16.035 1.329-59.893 0-108.457-47.823-108.457-106.801 0-59 48.564-106.779 108.435-106.779 59.893 0 108.435 47.779 108.435 106.779 0 5.36-0.523 10.589-1.329 15.774l123.621 121.769c37.953-62.9 39.849-131.704-0.871-171.749zM839.636 815.986l91.092 89.698 17.343-17.081-91.092-89.72-17.343 17.103zM896.022 760.451l-17.343 17.059 91.092 89.72 17.343-17.081-91.092-89.698zM198.133 263.070l134.95-132.902 39.871 39.261-134.95 132.924-39.871-39.282z" />
<glyph unicode="&#xe679;" glyph-name="bon-pie" horiz-adv-x="973" d="M375.437 730.547c0.666-2.97 1.216-5.926 2.035-8.602 0.883-2.662 1.69-5.248 2.662-7.68 1.754-4.954 4.096-8.922 6.17-12.71 2.227-3.648 4.531-6.682 6.707-9.434 2.381-2.534 4.454-4.864 6.618-6.682 2.202-1.754 4.109-3.354 6.029-4.518 3.699-2.432 6.963-3.558 9.037-4.378 2.15-0.742 3.366-0.858 3.366-0.858s-0.141 1.549-0.41 4.467c-0.32 2.765-0.435 7.053-0.691 11.827-0.038 2.368-0.090 4.992-0.154 7.821 0.064 2.637 0.141 5.504 0.23 8.563 0.461 5.901 1.037 11.917 2.522 17.318 0.435 1.357 0.691 2.637 1.024 3.904 0.358 1.267 0.998 2.432 1.459 3.571 0.589 1.126 0.717 2.266 1.434 3.264 0.653 1.011 1.178 1.971 1.69 2.918 0.422 0.934 1.062 1.83 1.779 2.662 0.678 0.845 1.254 1.69 1.766 2.509 1.37 1.651 2.957 3.238 4.058 4.941 1.843 1.664 3.405 3.443 4.851 5.235 1.715 1.242 3.174 2.573 4.429 4.16 0.141 0.256 1.062 1.101 1.83 1.83l2.317 2.214c1.562 1.459 3.072 2.995 4.582 4.531l3.405 3.405 5.926 6.157c7.731 8.819 14.95 19.546 20.71 31.987 5.773 12.39 9.856 26.522 11.648 40.563 1.856 14.042 1.434 27.738-0.461 39.654-1.856 11.981-5.235 22.157-8.909 30.63-7.539 16.896-16.653 26.906-23.501 32.73-3.379 2.944-6.477 4.659-8.422 5.888-2.022 1.165-3.2 1.562-3.2 1.562s-0.038-1.562-0.102-4.506c0.026-2.79-0.282-7.066-0.435-11.968-0.435-9.869-1.229-23.245-3.341-36.301-0.998-6.502-2.509-12.89-4.288-18.56-1.805-5.709-3.942-10.662-6.285-15.014-2.355-4.378-4.915-8.256-7.834-12.326-2.931-4.058-6.336-8.269-10.24-12.698l-3.085-3.328-0.768-0.845-0.192-0.218-1.741-1.83-0.128-0.179-0.538-0.64-2.163-2.547c-1.421-1.69-2.842-3.392-4.211-5.146l-2.074-2.611c-0.691-0.883-1.28-1.562-2.381-3.251-3.891-5.722-7.552-11.674-10.918-17.638-2.842-6.221-5.414-12.506-7.718-18.688-1.024-3.443-1.907-6.938-2.739-10.368-0.806-3.494-1.715-6.682-2.15-10.33-0.448-3.597-0.819-7.168-1.075-10.675-0.128-1.728-0.256-3.456-0.371-5.158-0.064-1.728 0.064-3.507 0.102-5.21 0.269-6.912 0.691-13.414 2.138-19.418zM539.456 746.035c0.486-2.278 0.883-4.531 1.498-6.579 0.653-2.035 1.254-4.006 1.971-5.862 1.306-3.802 3.046-6.835 4.57-9.741 1.651-2.79 3.366-5.107 4.979-7.219 1.779-1.933 3.302-3.712 4.902-5.107 1.651-1.331 3.046-2.56 4.48-3.456 2.752-1.869 5.171-2.726 6.694-3.354 1.6-0.563 2.496-0.666 2.496-0.666s-0.102 1.19-0.294 3.43c-0.243 2.112-0.32 5.389-0.512 9.037-0.038 1.818-0.064 3.814-0.115 5.99 0.051 2.022 0.102 4.211 0.166 6.566 0.333 4.506 0.768 9.114 1.869 13.235 0.32 1.050 0.525 2.022 0.768 2.982 0.269 0.96 0.742 1.869 1.075 2.739 0.435 0.858 0.538 1.728 1.062 2.483 0.474 0.794 0.87 1.523 1.267 2.24 0.307 0.717 0.794 1.395 1.318 2.035 0.499 0.64 0.922 1.293 1.318 1.92 1.011 1.254 2.202 2.47 3.008 3.776 1.37 1.267 2.522 2.624 3.597 4.006 1.28 0.947 2.355 1.971 3.302 3.187 0.102 0.192 0.781 0.832 1.344 1.395l1.715 1.69c1.165 1.126 2.266 2.304 3.405 3.469l2.522 2.598 4.39 4.71c5.747 6.746 11.098 14.963 15.36 24.474 4.288 9.472 7.309 20.301 8.64 31.040 1.37 10.739 1.075 21.222-0.32 30.336-1.37 9.165-3.891 16.96-6.63 23.424-5.594 12.941-12.352 20.582-17.421 25.037-2.496 2.266-4.8 3.571-6.246 4.518-1.498 0.883-2.381 1.203-2.381 1.203s-0.026-1.203-0.077-3.456c0.013-2.138-0.218-5.402-0.32-9.152-0.32-7.552-0.909-17.792-2.47-27.776-0.755-4.979-1.869-9.869-3.187-14.195-1.331-4.378-2.931-8.166-4.659-11.482-1.754-3.354-3.648-6.31-5.811-9.434-2.176-3.098-4.685-6.31-7.59-9.715l-2.304-2.547-0.563-0.653-0.141-0.166-1.306-1.395-0.102-0.128-0.384-0.486-1.587-1.946c-1.050-1.306-2.099-2.598-3.123-3.942l-1.549-1.984c-0.525-0.678-0.947-1.203-1.766-2.483-2.893-4.39-5.606-8.934-8.090-13.504-2.125-4.762-4.019-9.562-5.722-14.285-0.768-2.637-1.421-5.312-2.022-7.936-0.602-2.675-1.293-5.107-1.6-7.885-0.333-2.765-0.627-5.491-0.806-8.179-0.102-1.331-0.205-2.65-0.282-3.955-0.051-1.331 0.051-2.688 0.090-4.006 0.166-5.274 0.499-10.253 1.574-14.848zM396.966 460.838c0 0 106.266-27.302 167.539-106.304 16-20.621 28.941-44.787 36.109-72.896l52.109 14.707c-24.346 95.36-131.917 164.493-255.757 164.493zM755.2 409.6c-38.848 93.466-130.803 174.963-262.515 174.963-131.994 0-260.813-65.92-288.205-185.357-107.763-10.112-204.275-54.118-204.403-139.635-0.026-18.355 4.25-36.211 11.674-53.338l53.107-62.835c6.784-115.75 81.818-207.322 173.261-207.322h497.958c91.494 0 166.566 91.571 173.312 207.322l48.512 62.835c7.322 16.998 11.277 34.931 11.277 53.338 0 88.435-100.992 145.088-213.978 150.029zM736.051-1.075h-497.958c-57.651 0-129.741 60.928-135.693 141.875 0 0 196.16-51.2 390.208-51.2 189.914 0 377.792 51.2 377.792 51.2-5.978-81.011-76.659-141.875-134.349-141.875zM884.301 206.31c0 0-192.154-38.4-389.030-38.4-206.771 0-418.739 38.4-418.739 38.4l4.736 3.994c-12.685 15.398-19.136 32.038-19.162 49.318 0 55.974 70.17 103.283 153.6 103.283h23.77l6.182 23.194c21.005 78.63 119.539 135.667 234.227 135.667 114.842 0 213.363-57.203 234.253-135.923l6.362-24 33.357 1.050c83.008 0 153.19-47.322 153.19-103.296 0-23.411-12.019-41.574-22.746-53.286z" />
<glyph unicode="&#xe67a;" glyph-name="bon-envelope" horiz-adv-x="1297" d="M1262.114 913.818c-22.665 22.801-49.835 34.27-81.647 34.27h-1063.936c-31.812 0-59.051-11.469-81.715-34.27-22.596-22.801-33.929-50.313-33.929-82.33v-792.439c0-32.085 11.332-59.46 33.929-82.261 22.665-22.869 49.903-34.202 81.715-34.202h1063.936c31.812 0 58.982 11.332 81.647 34.202 22.665 22.801 33.997 50.244 33.997 82.261v792.439c0 32.017-11.332 59.529-33.997 82.33zM1203.61 38.98c0-6.281-2.253-11.742-6.895-16.316s-9.967-6.963-16.247-6.963h-1063.936c-6.281 0-11.674 2.321-16.247 6.963s-6.895 10.035-6.895 16.316v559.445c15.428-17.476 32.017-33.451 49.835-48.060 129.229-100.079 231.834-182.067 307.951-246.17 24.576-20.958 44.578-37.205 59.938-48.879 15.428-11.674 36.25-23.415 62.532-35.362 26.283-11.878 50.995-17.818 74.069-17.818h1.502c23.142 0 47.855 5.939 74.138 17.818 26.283 11.947 47.036 23.689 62.532 35.362 15.428 11.674 35.362 27.921 60.006 48.879 76.117 64.034 178.722 146.091 307.883 246.101 17.886 14.609 34.475 30.583 49.835 48.060v-559.377zM1203.61 804.523c0-28.672-11.196-60.621-33.587-95.778s-46.694-63.283-72.636-84.105c-92.911-73.796-189.577-150.733-289.86-230.878-2.799-2.389-11.264-9.626-25.259-21.436-13.926-11.947-24.986-21.094-33.246-27.238-8.124-6.349-18.91-13.995-32.154-23.006s-25.463-15.633-36.523-20.002c-11.127-4.506-21.504-6.622-31.13-6.622h-1.434c-9.626 0-19.934 2.116-31.061 6.554-11.059 4.301-23.279 10.991-36.523 20.002s-23.962 16.657-32.154 23.006c-8.192 6.212-19.251 15.292-33.246 27.238-13.995 11.878-22.391 19.046-25.327 21.504-100.215 80.077-196.813 157.013-289.792 230.81-70.861 56.388-106.291 125.269-106.291 206.985 0 6.281 2.321 11.742 6.895 16.316 4.574 4.642 10.035 6.963 16.247 6.963h1063.936c3.891-2.185 7.236-2.799 10.103-1.775s5.052-0.887 6.485-5.461c1.434-4.574 2.799-6.827 4.028-6.622 1.229 0.273 1.911-2.731 2.116-9.079 0.273-6.349 0.41-9.557 0.41-9.557v-17.818z" />
<glyph unicode="&#xe67b;" glyph-name="bon-user" horiz-adv-x="992" d="M631.66 302.861c-14.336 4.797-29.912 1.509-41.283-8.677l-92.591-111.077-92.591 111.077c-11.426 10.186-27.055 13.474-41.283 8.677-60.147-20.049-360.34-128.216-360.34-284.51 0-25.331 19.51-45.864 43.547-45.864h901.389c24.037 0 43.547 20.534 43.547 45.864-0.054 156.295-300.194 264.461-360.394 284.51zM78.861 42.819c52.386 69.686 143.36 147.079 277.558 193.051l111.778-122.233c17.785-19.456 43.816-19.456 61.602 0l111.778 122.233c124.497-46.026 225.172-123.365 277.558-193.051h-840.273zM497.785 330.833c159.69 0 289.576 136.677 289.576 304.613 0 167.99-129.886 304.667-289.576 304.667-159.636 0-289.576-136.677-289.576-304.667 0.054-167.936 129.94-304.613 289.576-304.613zM499.025 867.193c121.856 0 221.022-104.179 221.022-232.232s-99.166-232.232-221.022-232.232-221.022 104.232-221.022 232.286c0 128.054 99.166 232.179 221.022 232.179z" />
<glyph unicode="&#xe67c;" glyph-name="bon-plate" horiz-adv-x="1582" d="M227.837 721.858c-22.453 0-40.66-17.932-40.66-40.061v-107.795c-7.043-2.772-13.787-4.995-20.33-6.893v114.663c0 22.153-18.207 40.061-40.66 40.061-22.428 0-40.66-17.932-40.66-40.061v-118.384c-8.167 2.023-15.060 4.521-20.305 6.943v111.441c0 22.153-18.207 40.061-40.66 40.061s-15.685-17.932-15.685-40.061v-151.702l13.836-11.963c2.173-1.898 8.567-27.823 62.839-36.015v-407.977c0-22.153 18.207-40.061 40.66-40.061s40.66 17.932 40.66 40.061v410.399c24.251 4.895 25.8 13.637 54.447 27.998l22.228 11.139v158.121c-0.025 22.153 6.718 40.086-15.71 40.086zM1582.289 739.84c-0.15 3.921-0.824 7.817-2.098 11.614-0.175 0.475-0.3 0.999-0.475 1.499-1.723 4.446-4.346 8.617-7.767 12.338-0.175 0.2-0.25 0.5-0.475 0.674-0.1 0.125-0.2 0.15-0.3 0.25-3.646 3.721-7.842 6.619-12.338 8.642-0.3 0.1-0.5 0.3-0.724 0.425-4.496 1.898-9.266 2.897-14.086 3.147-0.45 0.025-0.824 0.1-1.299 0.125-0.3 0-0.549 0.075-0.849 0.075-4.645 0-9.016-0.924-13.137-2.323-0.425-0.15-0.949-0.275-1.449-0.425-4.546-1.723-8.791-4.321-12.588-7.717-0.225-0.15-0.475-0.2-0.624-0.4-3.971-3.646-96.206-90.312-98.079-206.998-1.049-66.41 26.599-127.875 82.32-182.747 0.874-0.849 1.998-1.149 2.872-1.873v-302.030c0-22.153 18.207-40.061 40.685-40.061 22.428 0 40.635 17.932 40.635 40.061v664.426c0.025 0.425-0.175 0.849-0.225 1.299zM1501.268 524.575c-2.722 11.339-4.096 22.803-3.946 34.416 0.125 11.089 1.623 21.904 3.946 32.293v-66.71zM1028.155 641.761c-3.372 3.472-7.368 5.844-11.514 7.817-50.301 45.281-114.688 70.681-183.371 71.33h-2.847c-72.879 0-141.637-27.598-193.711-77.974-52.823-51.025-82.345-119.209-83.069-192.112-0.050-4.695 0.874-9.141 2.348-13.362 1.573-69.157 28.372-133.894 76.725-183.246 51-52.074 119.533-80.846 192.937-81.046 37.813-0.175 74.502 7.443 108.519 21.754 33.168 13.187 63.763 32.793 90.062 58.218 52.848 51 82.37 119.234 83.094 192.112 0.4 37.189-6.818 73.303-20.805 106.671-13.062 33.168-32.718 63.688-58.368 89.837zM991.166 277.367c-0.549-0.549-1.149-1.149-1.673-1.698-20.905-20.555-45.056-36.539-71.156-47.604-26.674-10.715-55.471-16.309-85.067-16.309-0.949 0-2.023-0.025-2.822 0-3.646 0-7.143-0.524-10.54-1.299-56.545 2.473-109.044 25.575-148.63 66.16-41.709 42.808-64.137 99.553-63.113 159.944 1.024 59.542 24.801 115.537 67.010 157.896 0.674 0.674 1.424 1.474 1.998 1.998 1.449 1.474 2.048 3.322 3.247 4.895 41.909 37.988 95.682 58.942 152.726 58.942h2.398c60.566-0.624 117.211-24.526 159.594-67.334 20.705-20.88 36.639-45.156 47.554-71.405 10.64-27.024 16.009-56.22 15.46-86.316-1.024-59.542-24.776-115.512-66.985-157.871zM830.423 960c-286.42 0-519.493-229.651-519.493-511.925 0-282.299 233.072-511.975 519.493-511.975 286.47 0 519.543 229.676 519.543 511.975-0.025 282.274-233.047 511.925-519.543 511.925zM820.658 10.777c-254.726 0-461.974 201.753-461.974 449.786s207.248 449.786 461.974 449.786c254.726 0 462.024-201.778 462.024-449.786s-207.298-449.786-462.024-449.786z" />
<glyph unicode="&#xe67d;" glyph-name="bon-innk" d="M477.453 749.918l0.377-0.377-258.264-103.424-219.729-577.213 131.234-132.904 569.613 222.693 96.795 271.899 2.102-2.156 120.185 62.733-373.383 373.329-68.931-114.58zM805.565 519.788c0 0-78.309-41.93-81.058-50.338-17.3-53.517-81.381-251.203-81.381-251.203l-496.532-207.603-11.749 12.126 261.875 265.378c11.695-5.12 24.522-7.923 38.050-7.923 53.14 0 96.202 43.655 96.202 97.549 0 53.841-43.062 97.496-96.202 97.496s-96.256-43.655-96.256-97.549c0-14.228 3.072-27.702 8.515-39.882l-261.497-265.054-11.965 11.965 204.854 503.215c0 0 156.349 53.625 223.286 76.584 18.216 6.252 54.649 96.525 54.649 96.525l249.209-241.287zM700.632 959.892l-106.442-47.697 382.329-382.168 47.481 108.813-323.368 321.051z" />
<glyph unicode="&#xe67e;" glyph-name="bon-pen" horiz-adv-x="976" d="M944.845 831.386l-94.72 98.611c-18.074 18.842-42.086 29.184-67.635 29.184-25.6 0-49.613-10.342-67.686-29.184l-44.698-46.541-62.413 65.69c-6.554 6.963-15.565 10.906-24.883 10.957-0.102 0-0.102 0-0.154 0-9.37 0-18.278-3.891-24.934-10.752l-368.845-383.949c-13.773-14.336-13.773-37.581 0-51.968 6.912-7.117 15.923-10.752 24.986-10.752s18.022 3.584 24.934 10.752l247.603 257.792 37.99-39.475-432.742-450.458c-13.363-13.875-22.784-31.078-27.494-50.074l-59.392-176.691c-9.165-27.187-5.069-57.498 10.906-80.947 16.077-23.603 42.189-37.632 69.837-37.632 11.725 0 23.194 2.458 34.099 7.373l157.133 70.81c16.998 5.12 32.41 14.592 45.005 27.699l623.104 648.704c37.325 38.81 37.376 101.99 0 140.851zM582.502 871.322l37.734-39.731-46.029-47.923-37.888 39.526 46.182 48.128zM91.597 10.65c-2.048-0.922-4.096-1.28-6.042-1.28-9.779 0-17.818 10.189-14.182 20.941l58.726 174.694 118.682-123.546-157.184-70.81zM894.976 742.451l-590.694-615.014-130.304 135.68 590.746 614.963c4.915 5.12 11.315 7.68 17.818 7.68 6.4 0 12.902-2.611 17.818-7.68l94.72-98.611c9.728-10.24 9.728-26.829-0.102-37.018z" />
<glyph unicode="&#xe67f;" glyph-name="bon-phone" horiz-adv-x="465" d="M450.793 131.724l-46.406 141.405c-11.357 34.676-45.289 60.416-81.827 62.138l-20.992 1.024c-20.387 0.931-39.377 15.267-45.615 34.723-15.825 48.268-16.151 99.095-0.977 147.13 6.237 19.735 24.39 33.42 45.242 34.164l20.945 0.791c22.481 0.838 43.567 9.961 59.345 25.6 9.914 9.914 17.455 22.202 21.69 35.607l44.684 140.847c14.476 45.568 2.188 95.046-32.070 129.071-20.154 20.015-45.615 32.628-73.588 36.492l-50.316 7.028c-79.034 11.031-156.207-28.765-192.047-99.142-119.203-233.984-121.204-516.096-5.492-754.735 9.356-19.27 21.83-36.678 37.050-51.852 35.654-35.421 84.666-55.668 134.656-55.622h65.722c33.932 0 65.722 12.986 89.46 36.631 33.932 33.559 45.568 82.944 30.534 128.698zM365.615 57.251c-9.449-9.402-22.202-14.569-35.84-14.569l-65.676-0.047c-42.217 0-83.223 25.647-101.655 63.721-105.379 217.228-103.471 474.159 5.027 687.151 21.225 41.612 66.886 65.21 113.664 58.694l50.362-6.982c11.124-1.583 21.318-6.656 29.37-14.615 13.684-13.638 18.572-33.42 12.753-51.665l-44.73-140.893c-0.605-1.908-1.629-3.631-3.025-5.027-2.886-2.886-6.237-3.584-8.518-3.677l-20.899-0.745c-52.829-1.862-98.956-36.678-114.781-86.714-20.015-63.116-19.549-130.141 1.21-193.629 16.105-49.338 63.953-85.644 115.852-88.157l20.992-1.024c3.444-0.14 9.728-3.025 11.636-8.751l46.452-141.405c6.051-18.479 1.35-38.214-12.195-51.665z" />
<glyph unicode="&#xe681;" glyph-name="bon-pin" horiz-adv-x="1186" d="M0 960l1186.341-1024v1024h-1186.341zM997.101 648.579l-26.924 26.924-71.805-62.826v-62.839l-49.364 49.364-101.189-76.288h-11.052v11.052l76.3 101.164-49.364 49.364h62.826l62.826 71.817-26.924 26.924 26.924 26.924 134.668-134.656-26.924-26.924zM925.304 720.368l-62.826-62.844-17.954 17.949 62.826 62.844 17.954-17.949z" />
<glyph unicode="&#xe682;" glyph-name="bon-triangle" horiz-adv-x="539" d="M-0.269 448l539.217-490.227v980.453z" />
<glyph unicode="&#xe683;" glyph-name="bon-triangle-top" horiz-adv-x="2210" d="M1110.871 948.485l-1100.072-1000.142h2200.147z" />
<glyph unicode="&#xe684;" glyph-name="bon-cap" horiz-adv-x="1205" d="M830.065 798.268c7.138 2.801 15.962 6.355 27.347 11.144-17.92 100.051-165.225 140.017-256 140.017-68.247 0-206.035-17.83-256-140.017-307.832 82.944-323.464-114.658-331.294-150.588-19.516-89.48 68.668-198.505 210.824-210.793v-421.647c0-63.368 6.566-60.024 70.054-60.024h612.834c63.458 0 70.054-3.313 70.054 60.024v421.647c82.010-21.745 217.299 55.266 210.824 180.676-13.192 254.976-281.359 193.837-358.641 169.562zM917.647 26.383h-632.471v120.44h632.471v-120.44zM917.647 207.059h-632.471v210.824c40.177 9.547 87.311 15.902 118.121 43.46 56.41-40.659 140.981-73.577 213.173-73.577 72.162 0 126.645 32.919 183.025 73.577 30.75-27.558 77.914-33.912 118.152-43.46v-210.824zM965.293 512.753c-45.267 0-87.221-7.288-112.248 30.871-9.638 14.818-25.66 24.365-43.309 25.841-1.596 0.12-3.162 0.181-4.789 0.181-15.932 0-31.262-6.656-42.225-18.462-40.267-43.61-99.087-68.548-161.34-68.548-62.223 0-121.073 24.937-161.31 68.518-12.017 13.041-29.304 19.546-47.044 18.312-17.649-1.506-33.641-11.023-43.309-25.841-24.998-38.189-66.861-30.871-112.188-30.871-73.939 0-134.054 59.994-134.054 133.783 0 73.758 60.145 133.752 134.054 133.752 28.883 0 56.832-9.668 80.866-27.979 13.975-10.662 32.105-14.306 49.182-10.029 17.016 4.397 31.172 16.354 38.28 32.437 32.256 73.035 109.026 90.112 195.524 90.112 86.558 0 163.298-17.047 195.554-90.112 7.108-16.083 21.263-28.070 38.31-32.467 17.047-4.307 35.147-0.693 49.152 10.029 24.004 18.312 52.013 28.009 80.896 28.009 73.879 0 134.054-59.994 134.054-133.752s-60.175-133.783-134.054-133.783z" />
<glyph unicode="&#xe685;" glyph-name="uniE685" horiz-adv-x="693" d="M348.629 935.765c-190.635 0-345.173-157.312-345.173-351.317 0-14.848 1.152-29.355 2.944-43.648 29.483-274.432 319.829-590.677 319.829-590.677 5.205-5.888 10.155-9.6 14.976-12.245l0.213-0.128 9.685-3.029 9.685 3.029 0.256 0.128c4.779 2.688 9.771 6.357 14.933 12.245 0 0 286.251 316.8 315.008 591.232 1.749 14.165 2.859 28.501 2.859 43.093-0.043 194.048-154.581 351.317-345.216 351.317zM629.675 548.011c-22.059-210.304-216.021-457.131-278.528-532.139-64.085 75.136-260.864 321.323-283.691 532.565-1.664 13.867-2.475 25.301-2.475 36.011 0 159.147 127.189 288.683 283.605 288.683s283.605-129.493 283.605-288.683c0.043-10.581-0.683-21.888-2.517-36.437zM348.629 747.733c-88.491 0-160.469-73.216-160.469-163.285 0-90.027 71.979-163.285 160.469-163.285 88.448 0 160.469 73.259 160.469 163.285 0 90.069-72.021 163.285-160.469 163.285zM348.629 483.84c-54.571 0-98.901 45.184-98.901 100.608s44.331 100.608 98.901 100.608c54.485 0 98.859-45.141 98.859-100.608 0-55.552-44.331-100.608-98.859-100.608z" />
<glyph unicode="&#xe698;" glyph-name="uniE698" d="M1009.194 510.452l-474.075 365.006c-13.628 10.497-32.624 10.497-46.282 0l-474.046-365.006c-16.595-12.763-19.697-36.59-6.904-53.17 12.778-16.58 36.59-19.667 53.185-6.918l41.645 32.072v-431.849c0-20.904 16.983-37.917 37.917-37.917h737.959c20.934 0 37.947 17.013 37.947 37.917v435.487l46.356-35.725c6.904-5.293 15.059-7.873 23.126-7.873 11.362 0 22.634 5.099 30.104 14.791 12.763 16.595 9.677 40.392-6.933 53.185zM840.677 88.503h-345.25c-3.34 16.222-6.426 36.023-7.396 57.226 7.634-3.549 19.95-7.798 35.263-7.798 24.349 0 60.193 10.87 92.638 62.698 5.412 8.648 3.027 20.040-5.412 25.78-2.073 1.402-20.815 13.598-46.923 13.598-20.144 0-47.251-7.336-72.181-38.126 4.503 24.542 13.673 48.31 30.104 68.126 21.575 4.607 140.187 35.353 160.779 158.721 0.865 5.099-0.388 10.273-3.444 14.433-3.057 4.13-7.709 6.844-12.748 7.515-0.76 0.089-7.455 0.924-17.967 0.924-26.123 0-81.217-5.457-118.344-47.266-19.055 56.346-65.635 121.788-159.944 130.153-8.812 0.805-17.043-4.667-19.741-13.151-1.103-3.429-26.526-85.496 15.507-158.080 23.141-39.96 61.699-68.647 114.765-85.556-38.349-60.223-33.25-138.13-23.648-189.183h-278.168v452.306l333.426 256.742 328.669-253.104 0.015-455.959z" />
<glyph unicode="&#xe699;" glyph-name="uniE699" d="M1012.902 637.048c0 43.599-8.573 85.851-25.351 125.776-16.288 38.455-39.558 72.992-69.195 102.629s-64.174 52.907-102.629 69.195c-39.803 16.901-82.177 25.351-125.776 25.351s-85.851-8.573-125.776-25.351c-38.454-16.288-72.992-39.558-102.629-69.195s-52.907-64.174-69.195-102.629c-16.901-39.803-25.351-82.177-25.351-125.776 0-54.499 13.717-107.896 39.803-155.414l-386.636-386.269c-8.94-8.94-11.757-22.534-6.246-35.394 1.102-2.694 2.939-5.144 5.021-7.224l86.586-86.586c2.082-2.082 4.531-3.798 7.226-5.022 12.859-5.511 26.453-2.817 35.394 6.247l53.519 53.519 77.033-77.033c2.082-2.082 4.531-3.797 7.224-5.021 12.859-5.511 26.455-2.818 35.394 6.246l85.361 85.361c2.082 2.082 3.797 4.531 5.021 7.224 5.511 12.859 2.817 26.455-6.246 35.394l-75.809 75.809 204.769 204.891c47.396-26.086 100.915-39.803 155.414-39.803 43.599 0 85.851 8.573 125.775 25.351 38.455 16.288 72.993 39.558 102.631 69.195 29.636 29.636 52.906 64.173 69.195 102.629 16.902 40.048 25.475 82.299 25.475 125.899zM803.113 523.764c-30.25-30.25-70.544-46.906-113.284-46.906-42.742 0-83.036 16.656-113.284 46.906-30.25 30.25-47.028 70.542-47.028 113.284 0 42.864 16.656 83.034 46.906 113.284s70.544 46.906 113.284 46.906c42.742 0 83.034-16.656 113.284-46.906s46.906-70.542 46.906-113.284c0.244-42.742-16.412-83.034-46.783-113.284z" />
<glyph unicode="&#xe69a;" glyph-name="uniE69A" d="M16.043 338.969c-21.39-21.39-21.39-56.067 0.006-77.463l27.947-27.947 66.813 26.14-25.178-67.778 140.399-140.402 107.802 62.613-54.871-115.542 46.54-46.543c21.395-21.395 56.073-21.395 77.463-0.006l253.692 253.692-386.921 386.927-253.692-253.692zM991.508 927.281l-0.227 0.229c-26.692 26.692-60.737 37.242-98.454 30.514-76.236-13.606-156.172-96.327-213.825-221.294-15.993-34.667-38.676-54.177-69.358-59.651-58.886-10.508-133.442 32.442-177.793 76.794-9.29 9.29-24.355 9.287-33.644-0.003l-46.103-46.106 68.115-68.115c8.848-8.848 8.848-23.189 0-32.036s-23.191-8.848-32.036 0l-68.115 68.115-17.071-17.071c-9.295-9.295-9.295-24.357-0.006-33.65l386.023-386.023c9.287-9.287 24.349-9.284 33.647 0.006l95.213 95.213c9.287 9.29 9.29 24.355 0.003 33.647-44.352 44.352-87.302 118.91-76.794 177.793 5.471 30.679 24.985 53.362 59.651 69.356 124.967 57.654 207.688 137.586 221.294 213.822 6.726 37.723-3.827 71.768-30.519 98.46zM947.922 825.307c-16.184-16.184-42.426-16.184-58.615 0-16.181 16.187-16.181 42.428 0 58.615 16.187 16.187 42.428 16.187 58.615 0s16.187-42.428 0-58.615z" />
<glyph unicode="&#xe69c;" glyph-name="uniE69C" d="M820.809 812.631c0.662 31.387-0.53 51.22-0.53 51.22h-616.592c0 0-1.159-19.832-0.497-51.22h-203.191v-33.506c0-7.648 1.291-188.060 112.637-286.891 46.452-41.221 104.393-61.947 172.697-61.98 10.33 0 20.958 0.695 31.719 1.622 38.804-53.14 83.634-90.355 134.059-108.896v-147.17h-148.031v-92.176h-48.902v-51.683h515.642v51.65h-48.935v92.176h-148.031v147.17c50.392 18.541 95.255 55.756 134.059 108.896 10.827-0.927 21.455-1.589 31.785-1.589 68.271 0.066 126.212 20.759 172.664 62.013 111.346 98.831 112.637 279.243 112.637 286.891v33.473h-203.191zM157.335 542.196c-63.603 56.286-82.409 152.633-87.971 203.423h137.668c5.827-63.272 19.534-142.105 51.154-211.402 5.794-12.714 11.886-24.766 18.111-36.553-47.445 1.821-87.375 16.621-118.961 44.532zM866.665 542.196c-31.553-27.944-71.516-42.711-118.928-44.532 6.225 11.754 12.317 23.839 18.111 36.553 31.619 69.297 45.326 148.13 51.121 211.402h137.668c-5.562-50.756-24.335-147.104-87.971-203.423z" />
<glyph unicode="&#xe69d;" glyph-name="uniE69D" d="M1004.69 833.633c-22.772 34.109-64.156 52.641-113.574 50.895-40.143-1.426-85.781-23.494-120.412-44.392 0 0.089 0 0.174 0 0.263 0.028 0.874 0.13 1.728 0.13 2.615 0 41.11-33.325 74.439-74.441 74.439-1.154 0-184.753 0.45-184.753 0.45v-0.156c0 0-182.875-0.441-184.029-0.441-41.115 0-74.441-33.329-74.441-74.444 0-0.878 0.102-1.741 0.133-2.61 0-0.089 0-0.178 0-0.263-34.633 20.894-80.269 42.966-120.409 44.397-49.439 1.758-90.819-16.795-113.587-50.906-28.812-43.169-25.363-104.501 10.253-182.299 53.788-117.464 180.199-205.619 242.84-243.788 30.666-71.229 94.018-124.737 177.276-141.514 1.469-3.484 2.252-6.881 2.252-10.353 0-16.484 0-73.952 0-114.337h-50.026c-26.313 0-47.642-16.256-47.642-36.318v-5.371h-17.173c-33.112 0-59.953-26.848-59.953-59.955v-61.448c145.851 0 307.727 0.148 469.729 0.148v61.448c0 33.107-26.839 59.95-59.95 59.95h-17.171v5.371c0 20.062-21.329 36.318-47.644 36.318h-50.026c0 40.384 0 97.855 0 114.343 0 3.473 0.782 6.864 2.252 10.346 83.255 16.782 146.609 70.288 177.278 141.512 62.639 38.176 189.052 126.328 242.838 243.797 35.616 77.799 39.067 139.134 10.25 182.303zM90.204 678.947c-24.624 53.782-30.099 95.512-15.421 117.503 14.074 21.085 46.212 21.616 55.727 21.277 33.996-1.215 88.441-32.829 122.633-57.54-0.089-89.043-1.085-256.792-1.026-259.101-57.442 41.593-128.095 104.006-161.913 177.86zM933.796 679.101c-33.727-73.659-104.427-136.118-161.909-177.771 0.057 2.28-0.943 169.968-1.030 259.007 34.192 24.711 88.637 56.329 122.635 57.536 9.514 0.348 41.654-0.191 55.727-21.272 14.676-21.99 9.198-63.719-15.423-117.499z" />
<glyph unicode="&#xe6a5;" glyph-name="uniE6A5" d="M964.94 408.618c31.523 0 59.088 27.565 59.088 59.088s-27.565 59.088-59.088 59.088h-283.593c47.27 216.618 35.453 433.235-90.582 433.235-114.19 0-43.285-169.347-102.4-287.523-59.088-118.175-193.010-145.74-193.010-145.74h-19.677v-590.82h531.733c31.523 0 59.088 27.565 59.088 59.088s-27.565 59.088-59.088 59.088h-59.088v39.382h137.825c31.523 0 59.088 27.565 59.088 59.088s-27.565 59.088-59.088 59.088h-98.47v39.382h137.853c31.523 0 59.088 27.593 59.088 59.088 0 31.523-27.565 59.088-59.088 59.088h-98.498v39.41h137.908zM-0.028 448v-433.235c0-43.34 35.453-78.793 78.765-78.793h157.558v590.82h-157.558c-43.312 0-78.765-35.48-78.765-78.793zM118.147 93.502c23.635 0 39.382-15.747 39.382-39.382s-15.747-39.382-39.382-39.382c-23.635 0-39.382 15.72-39.382 39.382-0.028 23.635 15.747 39.382 39.382 39.382z" />
<glyph unicode="&#xe6a6;" glyph-name="uniE6A6" horiz-adv-x="1719" d="M1676.763 508.014c-14.775 17.737-367.104 433.627-817.591 433.627s-802.816-415.89-817.591-433.627c-29.001-34.779-29.001-85.211 0-119.991 14.738-17.701 367.104-433.591 817.554-433.591s802.853 415.854 817.664 433.591c29.001 34.779 29.001 85.175-0.037 119.991zM996.791 691.785c30.281 16.896 72.521-2.45 94.354-43.191 21.797-40.704 14.885-87.442-15.397-104.302-30.318-16.896-72.521 2.487-94.354 43.227s-14.885 87.406 15.397 104.265zM859.173 105.070c-314.661 0-579.474 246.382-671.122 342.93 61.879 65.207 202.825 198.693 384.695 278.491-35.474-55.040-56.283-120.795-56.283-191.561 0-193.024 153.417-349.513 342.711-349.513s342.711 156.453 342.711 349.513c0 70.802-20.736 136.521-56.21 191.561 181.87-79.872 322.779-213.321 384.658-278.491-91.685-96.585-356.462-342.93-671.159-342.93z" />
<glyph unicode="&#xe6a7;" glyph-name="uniE6A7" horiz-adv-x="916" d="M890.988 960.054h-866.142c-13.743 0-24.926-10.59-24.926-23.606v-372.305c0-242.014 117.895-398.255 216.819-486.696 106.631-95.367 213.854-133.794 218.355-135.357l12.989-4.581c2.829-0.997 5.767-1.509 8.731-1.509 2.91 0 5.848 0.485 8.623 1.482l13.069 4.554c4.527 1.617 112.559 40.313 219.352 135.303 99.463 88.441 218.031 244.736 218.031 486.777v372.332c0 13.016-11.156 23.606-24.899 23.606zM457.081 57.075c-76.719 34.897-332.531 175.805-332.531 502.434v277.908h333.366l-0.835-780.342z" />
<glyph unicode="&#xe6a8;" glyph-name="uniE6A8" d="M512 957.806c-281.527 0-509.806-228.279-509.806-509.806s228.279-509.781 509.806-509.781c281.527 0 509.806 228.254 509.806 509.781s-228.279 509.806-509.806 509.806zM432.981 212.773l-234.569 234.594 90.088 90.112 144.433-144.482 306.42 306.395 90.088-90.112-396.459-396.507z" />
<glyph unicode="&#xe6a9;" glyph-name="uniE6A9" d="M191.974 256h-64c-35.328 0-64-28.621-64-64v-192c0-35.379 28.698-64 64-64h64c35.379 0 64 28.621 64 64v192c0 35.379-28.621 64-64 64zM448 384h-64c-35.302 0-64-28.621-64-64v-320c0-35.379 28.698-64 64-64h64c35.379 0 64 28.621 64 64v320c0 35.379-28.621 64-64 64zM634.906 712.499l71.962-87.245 125.184 334.746-352.563-58.931 73.882-89.626c-175.693-128.333-344.038-208.205-500.736-236.442-34.816-6.246-57.958-39.552-51.712-74.368 5.658-30.874 32.589-52.634 62.976-52.634 3.738 0 7.552 0.333 11.443 0.998 180.378 32.512 363.904 119.373 559.565 263.501zM704.026 512h-64.026c-35.354 0-64-28.621-64-64v-448c0-35.379 28.646-64 64-64h64.026c35.379 0 64 28.621 64 64v448c0 35.379-28.621 64-64 64zM960.051 640h-64c-35.405 0-64-28.621-64-64v-576c0-35.379 28.595-64 64-64h64c35.379 0 64 28.621 64 64v576c0 35.379-28.621 64-64 64z" />
<glyph unicode="&#xe6d3;" glyph-name="uniE69E" d="M500.936 261.916c-3.446-1.997-7.311-3.382-11.498-4.284-4.219-0.773-8.535-1.192-12.948-0.998v-22.32h29.825v-76.43h32.144v124.453h-25.155c-0.354-4.896-1.643-8.986-3.833-12.368-2.255-3.285-5.089-5.959-8.535-8.052zM66.671 453.814c0 0 13.012 28.472-6.925 59.006-19.937 30.598-51.179 36.653-51.179 36.653s-14.365-33.658 5.121-63.45c19.389-29.793 52.983-32.208 52.983-32.208zM122.553 448.918c0 0 32.015 10.274 43.868 43.836 11.82 33.626-10.113 62.871-10.113 62.871s-28.859-13.302-41.033-47.733c-12.11-34.463 7.279-58.973 7.279-58.973zM134.889 411.105c-7.537-35.751 14.912-57.556 14.912-57.556s30.437 14.429 37.78 49.214c7.311 34.849-18.262 61.003-18.262 61.003s-26.862-16.909-34.431-52.661zM205.811 291c0 0 28.923 17.167 32.949 52.532 4.058 35.397-23.899 59.006-23.899 59.006s-25.155-19.389-29.374-55.72c-4.155-36.299 20.323-55.817 20.323-55.817zM279.794 231.963c0 0 22.771 24.833 16.458 59.843-6.377 35.043-39.938 49.665-39.938 49.665s-18.52-25.831-12.046-61.808c6.506-35.945 35.526-47.701 35.526-47.701zM93.211 528.054c0 0 26.636 16.394 26.991 52.951 0.354 36.524-22.224 58.877-22.224 58.877s-30.662-20.001-31.017-55.656c-0.387-35.558 26.25-56.171 26.25-56.171zM83.903 380.443c0 0 4.026 30.984-24.027 54.368-28.118 23.319-59.714 19.905-59.714 19.905s-3.801-36.395 23.544-59.167c27.409-22.707 60.197-15.106 60.197-15.106zM125.58 310.744c0 0-2.963 31.21-35.526 47.668-32.595 16.555-62.645 6.12-62.645 6.12s4.38-36.331 36.138-52.435c31.725-16.040 62.033-1.353 62.033-1.353zM128.415 291.806c-36.073 5.926-61.55-13.077-61.55-13.077s15.17-33.271 50.277-39.069c35.139-5.733 59.585 17.457 59.585 17.457s-12.271 28.762-48.313 34.688zM198.693 234.99c-36.46 1.546-59.553-20.323-59.553-20.323s19.035-31.307 54.625-32.82c35.558-1.482 57.009 24.446 57.009 24.446s-15.557 27.184-52.081 28.698zM101.553 508.31l-17.006 3.897c-0.419-1.868-39.584-186.615 224.653-322.856l7.988 15.46c-251.515 129.703-217.213 296.478-215.635 303.499zM682.237 131.311h-16.684v187.098h16.684v27.409h-20.259v19.1c0 0-134.244 24.961-134.244 80.585 0 18.198 16.587 38.231 38.425 64.352l5.443-15.202 35.848 12.916-2.19 6.152c58.716-3.414 107.35 12.175 145.099 46.509 94.081 85.706 83.677 256.668 83.162 263.883l-1.192 17.779h-109.573l5.701-23.512c2.416-10.242 1.321-18.649-3.607-26.411-11.788-18.552-42.354-28.472-53.176-30.695h-0.064c0.129 7.15 0.097 14.429-0.064 21.869h26.185v30.147h-185.713v0.193h-185.746v-30.179h26.185c-0.161-7.408-0.193-14.719-0.064-21.869h-0.064c-10.79 2.222-41.388 12.143-53.176 30.695-4.896 7.794-6.023 16.201-3.607 26.475l5.669 23.512h-109.508l-1.192-17.779c-0.515-7.215-10.919-178.177 83.162-263.883 37.748-34.334 86.383-49.955 145.099-46.509l-2.222-6.152 35.88-12.916 5.443 15.202c21.837-26.153 38.425-46.155 38.425-64.352 0-55.624-134.244-80.617-134.244-80.617v-19.067h-20.259v-27.409h16.684v-187.131h-16.684v-31.017h-11.917v-46.412h182.106v-0.193h182.17v46.412h-11.917v31.017zM668.001 713.22h26.507v14.88c17.94 5.862 46.638 18.616 62.42 43.32 6.281 9.92 9.888 20.839 10.693 32.402h28.279c-0.097-43.675-6.893-156.822-71.277-215.409-31.307-28.44-73.145-40.389-124.55-35.912 28.826 39.294 57.653 90.28 67.927 160.72zM299.377 588.573c-64.417 58.587-71.18 171.735-71.277 215.409h28.279c0.773-11.531 4.413-22.481 10.693-32.402 15.75-24.704 44.48-37.458 62.388-43.32v-14.88h26.54c10.274-70.472 39.069-121.458 67.96-160.752-51.469-4.445-93.243 7.505-124.582 35.945zM636.92 131.311h-124.904v0.193h-124.968v179.916h124.904v-0.193h124.968v-179.916zM957.329 453.62c0 0 33.561 2.383 53.015 32.208 19.454 29.793 5.089 63.45 5.089 63.45s-31.242-6.055-51.179-36.653c-20.001-30.534-6.925-59.006-6.925-59.006zM901.415 448.725c0 0 19.454 24.511 7.344 58.973-12.175 34.463-41.033 47.765-41.033 47.765s-21.966-29.245-10.081-62.871c11.788-33.593 43.771-43.868 43.771-43.868zM874.167 353.356c0 0 22.449 21.805 14.912 57.524-7.505 35.751-34.399 52.693-34.399 52.693s-25.573-26.153-18.262-61.003c7.279-34.785 37.748-49.214 37.748-49.214zM809.17 402.345c0 0-27.957-23.641-23.899-59.006 4.026-35.365 32.917-52.564 32.917-52.564s24.446 19.55 20.323 55.849c-4.219 36.331-29.342 55.72-29.342 55.72zM727.78 291.645c-6.313-35.075 16.458-59.843 16.458-59.843s29.020 11.724 35.526 47.668c6.474 35.977-12.046 61.808-12.046 61.808s-33.626-14.623-39.938-49.633zM930.789 527.861c0 0 26.604 20.613 26.218 56.171-0.354 35.622-30.984 55.656-30.984 55.656s-22.61-22.353-22.224-58.877c0.387-36.556 26.991-52.951 26.991-52.951zM1023.839 454.522c0 0-31.596 3.382-59.714-19.905-28.086-23.383-24.027-54.368-24.027-54.368s32.82-7.633 60.197 15.106c27.313 22.771 23.544 59.167 23.544 59.167zM933.945 358.219c-32.595-16.491-35.558-47.636-35.558-47.636s30.276-14.687 62.033 1.417c31.757 16.104 36.138 52.435 36.138 52.435s-30.050 10.339-62.613-6.216zM895.585 291.612c-36.041-5.926-48.313-34.688-48.313-34.688s24.446-23.19 59.585-17.457c35.139 5.765 50.309 39.069 50.309 39.069s-25.541 18.971-61.582 13.077zM773.194 206.164c0 0 21.451-25.928 57.009-24.446 35.558 1.514 54.625 32.788 54.625 32.788s-23.093 21.902-59.553 20.388c-36.46-1.578-52.081-28.73-52.081-28.73zM939.421 512.014l-17.006-3.897c1.578-7.021 35.945-173.796-215.635-303.499l7.988-15.46c264.237 136.241 225.072 320.988 224.653 322.856z" />
<glyph unicode="&#xe6d4;" glyph-name="bon-quote" d="M422.079 623.295l-14.003 11.788-0.452 0.452-0.929 0.476-10.407 6.073 0.238-0.81c-9.907 5.072-20.409 9.002-32.173 9.978-51.914 4.382-97.637-35.816-102.162-89.731-4.525-53.891 33.911-101.114 85.778-105.472 16.622-1.405 32.411 2.143 46.652 8.906-9.049-51.772-41.698-125.666-144.551-195.132-14.36-9.788-18.551-29.767-9.264-44.58 5.453-8.668 14.217-13.741 23.361-14.503 6.62-0.548 13.455 1.119 19.527 5.215 126.214 85.421 163.959 180.962 173.413 246.046 13.788 83.111-7.906 129.262-29.22 154.172l-5.811 7.12zM594.658 953.38c-279.123 45.628-542.387-143.646-588.014-422.721-45.651-279.1 143.622-542.387 422.721-588.014 279.076-45.651 542.363 143.622 588.014 422.721s-143.67 542.363-422.721 588.014zM954.177 375.701c-39.865-243.807-332.086-416.244-575.893-376.38-243.831 39.865-348.351 277.194-308.486 521.002s285.053 423.912 528.908 384.048c243.807-39.888 395.359-284.839 355.471-528.67zM755.855 605.41l-13.907 14.050-0.476 0.524-0.929 0.572-10.597 7.573 0.191-0.905c-10.169 6.454-21.171 11.693-33.601 13.907-55.463 9.811-108.592-28.91-118.76-86.468-10.192-57.535 26.362-112.14 81.872-121.951 17.765-3.167 35.126-0.905 51.105 4.977-14.884-54.82-57.32-131.143-174.842-195.751-16.479-9.097-22.885-30.196-14.36-47.056 4.953-9.883 13.931-16.217 23.719-17.932 7.12-1.262 14.598-0.119 21.528 3.667 144.193 79.491 194.322 178.533 210.873 247.641 23.076 88.088 4.191 139.907-16.241 168.793l-5.572 8.359z" />
<glyph unicode="&#xe900;" glyph-name="arrow-circle-left" d="M559.552 659.36l0.096-0.128c8.576 7.872 19.84 12.768 32.352 12.768 26.496 0 48-21.504 48-48 0-14.016-6.080-26.496-15.648-35.264l0.096-0.128-153.376-140.608 153.376-140.64-0.096-0.096c9.568-8.768 15.648-21.248 15.648-35.264 0-26.496-21.504-48-48-48-12.512 0-23.776 4.864-32.352 12.768l-0.096-0.128-192 176c-9.888 9.12-15.552 21.888-15.552 35.36s5.664 26.272 15.552 35.392l192 175.968zM512 960c282.752 0 512-229.248 512-512s-229.248-512-512-512c-282.752 0-512 229.248-512 512s229.248 512 512 512zM512 32c229.376 0 416 186.624 416 416s-186.624 416-416 416c-229.376 0-416-186.624-416-416s186.624-416 416-416z" />
<glyph unicode="&#xe901;" glyph-name="arrow-circle-right" d="M464.448 659.36l-0.096-0.128c-8.576 7.872-19.84 12.768-32.352 12.768-26.496 0-48-21.504-48-48 0-14.016 6.080-26.496 15.648-35.264l-0.096-0.128 153.376-140.608-153.376-140.64 0.096-0.096c-9.568-8.768-15.648-21.248-15.648-35.264 0-26.496 21.504-48 48-48 12.512 0 23.776 4.864 32.352 12.768l0.096-0.128 192 176c9.888 9.12 15.552 21.888 15.552 35.36s-5.664 26.272-15.552 35.392l-192 175.968zM512 960c-282.752 0-512-229.248-512-512s229.248-512 512-512c282.752 0 512 229.248 512 512s-229.248 512-512 512zM512 32c-229.376 0-416 186.624-416 416s186.624 416 416 416c229.376 0 416-186.624 416-416s-186.624-416-416-416z" />
<glyph unicode="&#xe902;" glyph-name="arrow-more" d="M512-64c-282.752 0-512 229.28-512 512 0 282.752 229.248 512.032 512 512.032s512-229.28 512-512.032c0-282.72-229.248-512-512-512zM512 864c-229.376 0-416-186.592-416-416 0-229.344 186.624-415.968 416-415.968s416 186.624 416 415.968c0 229.408-186.624 416-416 416zM541.568 234.656c-7.36-7.104-15.936-10.656-25.728-10.656-9.6 0-18.080 3.552-25.44 10.656l-21.184 21.568c-7.168 7.264-10.752 16-10.752 26.144 0 10.176 3.584 18.912 10.752 26.176l82.784 84.256h-198.944c-9.792 0-17.76 3.584-23.872 10.784-6.112 7.168-9.184 15.872-9.184 26.016v36.8c0 10.176 3.072 18.848 9.184 26.048 6.112 7.168 14.080 10.784 23.872 10.784h198.944l-82.784 84.544c-7.168 6.88-10.752 15.52-10.752 25.888 0 10.336 3.584 18.944 10.752 25.856l21.184 21.568c7.168 7.296 15.648 10.944 25.44 10.944 9.984 0 18.56-3.648 25.728-10.944l183.968-187.2c6.976-6.72 10.464-15.328 10.464-25.888 0-10.336-3.488-19.072-10.464-26.144l-183.968-187.2z" />
<glyph unicode="&#xe903;" glyph-name="can" d="M957.489 911.97h-661.114c-36.571 0-66.121-29.842-66.121-66.706v-327.485h-163.742c-36.571 0-66.121-29.891-66.121-66.706v-266.874c0-110.397 71.68-200.168 181.053-200.168h643.852c109.373 0 198.315 89.771 198.315 200.168v661.065c0 36.864-29.55 66.706-66.121 66.706zM230.254 184.198c0-36.766-12.337-66.755-48.811-66.755s-48.859 29.989-48.859 66.755v200.119h97.67v-200.119zM825.295 350.964h-396.678c-36.571 0-66.121 29.891-66.121 66.706 0 36.864 29.55 66.706 66.121 66.706h396.678c36.523 0 66.121-29.842 66.121-66.706 0-36.815-29.598-66.706-66.121-66.706zM825.295 551.131h-396.678c-36.571 0-66.121 29.891-66.121 66.706 0 36.864 29.55 66.755 66.121 66.755h396.678c36.523 0 66.121-29.891 66.121-66.755 0-36.815-29.598-66.706-66.121-66.706z" />
<glyph unicode="&#xe904;" glyph-name="cart" d="M648.433 735.322h354.786l-113.905-503.206h-588.318l-132.638 574.103-138.963 47.706 36.442 106.135 197.752-67.885 36.503-156.853h239.496v-166.611h-76.619l130.289-224.437 134.084 224.437h-78.908v166.611zM413.214 172.604c61.018 0 110.532-49.453 110.532-110.532 0-61.018-49.513-110.472-110.532-110.472s-110.532 49.453-110.532 110.472c0 61.079 49.513 110.532 110.532 110.532zM777.096 172.604c61.018 0 110.532-49.453 110.532-110.532 0-61.018-49.513-110.472-110.532-110.472-61.079 0-110.532 49.453-110.532 110.472 0 61.079 49.453 110.532 110.532 110.532z" />
<glyph unicode="&#xe905;" glyph-name="icon-wide" d="M512 960.233c-284.045 0-512.212-228.188-512.212-512.233 0-284.023 228.167-512.212 512.212-512.212s512.212 228.188 512.212 512.212c0 284.045-228.167 512.233-512.212 512.233zM481.733 510.862l-32.595-32.595c-9.313-9.313-23.282-9.313-32.595 0l-93.129 93.129c-6.985 6.985-20.954 2.328-20.954-9.313v-23.282c0-13.969-9.313-23.282-23.282-23.282h-46.565c-13.969 0-23.282 9.313-23.282 23.282v186.28c0 13.969 9.313 23.261 23.282 23.261h186.259c13.969 0 23.282-9.292 23.282-23.261v-46.586c0-13.969-9.313-23.282-23.282-23.282h-23.282c-9.313 0-16.298-11.641-9.313-20.954l93.129-93.108c11.641-7.006 11.641-20.954 2.328-30.288zM814.671 168.612c0-13.948-9.313-23.282-23.282-23.282h-186.259c-13.969 0-23.282 9.334-23.282 23.282v46.565c0 13.991 9.313 23.282 23.282 23.282h23.282c9.313 0 16.298 11.662 9.313 20.954l-93.129 93.129c-9.313 9.313-9.313 23.282 0 32.616l32.595 32.574c9.313 9.313 23.282 9.313 32.595 0l93.129-93.129c6.985-6.985 20.954-2.307 20.954 9.313v23.304c0 13.948 9.313 23.261 23.282 23.261h46.565c13.969 0 23.282-9.313 23.282-23.261v-188.608h-2.328z" />
<glyph unicode="&#xe906;" glyph-name="image" d="M1003.897 47.4h-987.028c-8.893 0-16.115 7.222-16.115 16.168v772.096c0 8.947 7.222 16.168 16.115 16.168h987.028c8.893 0 16.115-7.222 16.115-16.168v-772.096c0-8.947-7.222-16.168-16.115-16.168zM923.109 754.877h-825.506v-554.146l232.933 312.697c1.24 1.671 3.126 2.587 5.174 2.641 2.102 0.108 3.988-0.808 5.228-2.425l196.931-242.58 154.031 135.707c2.641 2.264 6.683 2.156 9.108-0.431l222.1-230.131v578.668zM600.010 600.738c0 43.816 35.463 79.279 79.171 79.279 43.763 0 79.225-35.463 79.225-79.279 0-43.763-35.463-79.279-79.225-79.279-43.709 0-79.171 35.517-79.171 79.279z" />
<glyph unicode="&#xe907;" glyph-name="microphone" d="M809.697 554.742l-265.38 232.571c15.442 94.536 97.976 169.738 198.001 173.097 113.91 3.85 211.313-84.214 217.457-196.608 5.325-96.993-59.228-182.231-150.077-209.060zM744.653 546.058l112.599-98.673-252.723-286.269-428.524 375.562 252.723 286.269 315.924-276.89zM280.166 379.72l171.418-150.241c-84.91-83.558-169.165-166.257-253.829-248.545-33.751-32.85-75.080-33.096-109.937-0.86-35.308 32.686-32.645 74.015-7.782 110.92 64.061 95.191 130.458 188.867 196.116 282.993 1.311 1.925 2.662 3.809 4.014 5.734z" />
<glyph unicode="&#xe908;" glyph-name="pin" d="M918.080 464.32c0-1.792-0.896-3.52-0.896-5.312-45.824-197.504-366.528-500.096-380.032-513.28-7.168-6.208-16.192-9.728-25.152-9.728s-17.984 2.688-25.152 9.728c-13.504 12.352-336.064 315.776-381.888 517.696 0 2.688-0.896 4.416-0.896 6.208-5.376 26.432-8.064 53.76-8.064 81.152 0 225.728 186.88 409.216 416 409.216s416-183.488 415.104-409.216c0-29.12-2.688-58.24-9.024-86.464zM511.104 888.576c-188.672 0-342.336-151.68-342.336-336.96 0-22.912 2.688-45.824 7.168-68.736 0.896-1.792 0.896-2.688 0.896-4.48 34.176-149.888 258.752-380.992 335.168-455.936 76.352 74.944 300.096 306.048 334.208 452.48 0 1.728 0 0.832 0 2.624 5.376 23.808 8.128 48.512 8.128 74.048 0 186.176-154.56 336.96-343.232 336.96zM512 456.384c-76.416 0-139.264 61.76-139.264 136.768 0 74.944 62.016 136.64 139.264 136.64s139.264-60.8 139.264-136.64c0-75.904-62.912-136.768-139.264-136.768zM512 658.368c-36.864 0-66.496-29.056-66.496-65.216 0-36.224 29.632-65.28 66.496-65.28s66.496 29.056 66.496 65.28c0 36.16-29.632 65.216-66.496 65.216z" />
<glyph unicode="&#xe909;" glyph-name="post-line" d="M895.759 658.281h-768.241c-70.776 0-128.060 39.093-128.060 89.871s57.284 91.979 128.060 91.979h768.241c70.776 0 128.060-41.201 128.060-91.979s-57.284-89.871-128.060-89.871zM127.518 538.955h768.241c70.776 0 128.060-41.201 128.060-91.979s-57.284-89.871-128.060-89.871h-768.241c-70.776 0-128.060 39.093-128.060 89.871s57.284 91.979 128.060 91.979zM127.518 237.779h286.359c70.776 0 128.060-41.201 128.060-91.979s-57.284-89.871-128.060-89.871h-286.359c-70.776 0-128.060 39.093-128.060 89.871s57.284 91.979 128.060 91.979z" />
<glyph unicode="&#xe90a;" glyph-name="calendar" horiz-adv-x="1081" d="M1042.83-63.659h-1004.772c-20.48 0-38.172 17.18-38.172 38.172v873.586c0 21.902 16.725 39.083 38.172 39.083h195.527v33.337c0 21.959 16.782 39.14 38.172 39.14 21.447 0 38.229-17.18 38.229-39.14v-33.337h467.456v33.337c0 21.959 16.782 39.14 38.172 39.14s38.172-17.18 38.172-39.14v-33.337h189.042c21.447 0 38.172-17.18 38.172-39.083v-872.619c0-21.959-16.725-39.14-38.172-39.14zM76.231 13.596h928.427v616.050h-928.427v-616.050zM1005.568 808.96h-151.78v-20.992c0-21.902-16.782-39.083-38.172-39.083s-38.172 17.18-38.172 39.083v20.992h-467.456v-20.992c0-21.902-16.782-39.083-38.229-39.083-21.39 0-38.172 17.18-38.172 39.083v20.992h-157.355v-101.092h929.337v101.092zM815.616 372.167h-549.433c-21.39 0-38.172 17.18-38.172 39.14 0 21.902 16.782 39.083 38.172 39.083h549.433c21.39 0 38.172-17.18 38.172-39.083 0-21.959-16.782-39.14-38.172-39.14zM266.183 261.575h274.716c21.447 0 38.172-17.18 38.172-39.083 0-21.959-16.725-39.14-38.172-39.14h-274.716c-21.39 0-38.172 17.18-38.172 39.14 0 21.902 16.782 39.083 38.172 39.083z" />
<glyph unicode="&#xe90b;" glyph-name="comment" horiz-adv-x="1081" d="M915.285 159.801v-186.368c0-15.132-9.273-28.786-23.381-34.588-4.722-1.877-9.671-2.844-14.507-2.844-9.899 0-19.57 3.812-26.795 10.98l-214.016 211.342h-447.090c-104.505 0-189.497 83.911-189.497 187.108v427.463c0 103.196 84.992 187.108 189.497 187.108h701.895c104.505 0 189.497-83.911 189.497-187.108v-427.463c0-95.232-72.363-174.023-165.604-185.628zM1005.113 772.892c0 61.895-51.029 112.299-113.721 112.299h-701.895c-62.692 0-113.721-50.404-113.721-112.299v-427.463c0-61.952 51.029-112.299 113.721-112.299h462.791c10.012 0 19.684-3.925 26.795-10.923l160.37-158.436v131.925c0 20.708 17.010 37.433 37.945 37.433h13.995c62.692 0 113.721 50.347 113.721 112.299v427.463zM819.371 410.567h-557.852c-20.935 0-37.945 16.782-37.945 37.433 0 20.708 17.010 37.433 37.945 37.433h557.852c20.935 0 37.945-16.725 37.945-37.433 0-20.651-17.010-37.433-37.945-37.433zM819.371 620.146h-557.852c-20.935 0-37.945 16.782-37.945 37.433 0 20.708 17.010 37.433 37.945 37.433h557.852c20.935 0 37.945-16.725 37.945-37.433 0-20.651-17.010-37.433-37.945-37.433z" />
<glyph unicode="&#xe90c;" glyph-name="replay" horiz-adv-x="1374" d="M1312.323-64.517c-21.721 0-42.322 11.205-53.441 30.168-122.311 207.644-437.355 238.675-614.314 238.675-20.342 0-38.615-0.431-54.131-1.034v-207.989c0-24.135-14.998-45.942-38.012-55.165-23.014-9.309-49.562-4.137-67.060 12.929l-465.886 452.094c-3.017 2.844-5.861 6.12-8.275 9.654-16.377 23.704-13.188 55.337 7.585 75.421l466.575 452.784c17.584 17.067 44.046 22.152 67.060 12.929s38.012-31.116 38.012-55.251v-205.49c243.243-10.343 435.89-83.351 573.371-217.298 208.765-203.335 210.144-471.574 210.058-482.78-0.086-27.152-18.877-50.683-45.856-57.665-5.172-1.293-10.516-1.982-15.688-1.982v0zM149.463 448l317.802-308.493v119.639c0 30.599 23.704 56.199 54.906 59.561 1.982 0.172 49.821 5.172 122.397 5.172 151.273 0 391.327-21.463 567.51-139.119-63.871 169.891-233.417 392.189-683.27 392.189-33.961 0-61.543 26.807-61.543 59.733v119.725l-317.802-308.407z" />
<glyph unicode="&#xe90d;" glyph-name="heart" horiz-adv-x="1193" d="M1096.153 864.847c-62.779 61.361-146.117 95.153-234.89 95.153-88.694 0-172.111-33.792-234.89-95.153l-30.878-30.247-30.956 30.247c-62.7 61.361-146.117 95.153-234.811 95.153s-172.19-33.792-234.89-95.153c-129.497-126.818-129.497-333.115 0-459.855l464.108-454.262c7.562-7.483 17.014-11.973 26.86-13.785 3.308-0.63 6.617-0.945 10.004-0.945 13.076 0 26.23 4.962 36.234 14.73l464.108 454.262c129.497 126.74 129.497 333.036 0 459.855zM1023.606 476.042l-428.111-419.131-428.111 419.131c-89.482 87.591-89.482 230.164 0 317.755 43.402 42.457 101.061 65.772 162.343 65.772s118.942-23.316 162.265-65.772l67.19-65.851c19.298-18.747 53.327-18.747 72.625 0l67.19 65.851c43.323 42.457 100.982 65.772 162.265 65.772 61.361 0 118.942-23.316 162.343-65.772 89.482-87.591 89.482-230.164 0-317.755z" />
<glyph unicode="&#xe90e;" glyph-name="pencil" d="M512-63.968c-282.752 0-512 229.248-512 512 0 282.72 229.248 512 512 512s512-229.28 512-512c0-282.752-229.248-512-512-512zM512 864c-229.376 0-416-186.592-416-415.968 0-229.408 186.624-416 416-416s416 186.592 416 416c0 229.376-186.624 415.968-416 415.968zM486.784 302.080h277.376v-50.496h-327.808l50.432 50.496zM663.296 556.992l-95.808 95.936 45.376 45.44c10.080 10.080 25.216 10.080 35.296 0l58.016-58.048c10.080-10.112 10.080-25.248 0-35.36l-42.88-47.968zM355.648 251.584h-95.808v95.904l277.376 280.192 95.808-95.904-277.376-280.192z" />
<glyph unicode="&#xe90f;" glyph-name="arrow-left" horiz-adv-x="614" d="M171.11 931.123l-0.205-0.205c-18.33 17.92-42.496 29.184-69.222 29.184-56.73 0-102.81-49.254-102.81-109.773 0-32.051 13.005-60.621 33.485-80.589l-0.205-0.307 328.397-321.331-328.397-321.434 0.205-0.307c-20.48-19.968-33.485-48.538-33.485-80.589 0-60.518 46.080-109.773 102.81-109.773 26.726 0 50.893 11.264 69.222 29.286l0.205-0.307 411.034 402.227c21.197 20.89 33.382 50.074 33.382 80.896 0 30.72-12.186 60.006-33.382 80.896l-411.034 402.125z" />
<glyph unicode="&#xe910;" glyph-name="loupe" d="M1001.523 69.848l-211.232 211.232c50.912 73.525 76.368 155.445 76.368 245.828 0 58.698-11.374 114.891-34.19 168.444-22.816 53.62-53.62 99.793-92.414 138.655-38.794 38.794-84.967 69.598-138.587 92.346-53.62 22.816-109.746 34.257-168.511 34.257-58.698 0-114.891-11.442-168.444-34.257-53.62-22.748-99.793-53.553-138.587-92.346-38.861-38.861-69.666-85.034-92.414-138.655-22.816-53.553-34.19-109.746-34.19-168.444 0-58.766 11.374-114.891 34.19-168.511 22.748-53.553 53.553-99.793 92.414-138.587 38.794-38.794 84.967-69.598 138.587-92.414 53.553-22.748 109.746-34.19 168.444-34.19 90.383 0 172.303 25.456 245.828 76.436l211.299-210.69c14.759-15.572 33.242-23.425 55.381-23.425 21.394 0 39.877 7.853 55.448 23.425 15.639 15.572 23.425 34.054 23.425 55.448 0 21.732-7.583 40.215-22.816 55.448zM627.94 331.924c-54.027-54.027-118.953-80.972-194.983-80.972-75.962 0-140.957 27.013-194.915 80.972-54.027 54.027-81.040 119.021-81.040 194.983s27.013 140.957 81.040 194.983c53.959 53.959 118.953 80.972 194.915 80.972 76.030 0 140.957-27.013 194.983-80.972 54.027-54.027 81.040-119.021 81.040-194.983s-27.013-140.957-81.040-194.983z" />
<glyph unicode="&#xe911;" glyph-name="cinema" horiz-adv-x="877" d="M876.414 871.547c0 48.971-39.69 88.66-88.634 88.66h-699.379c-48.945 0-88.66-39.69-88.66-88.66v-847.12c0-48.945 39.716-88.634 88.66-88.634h699.353c48.971 0 88.66 39.69 88.66 88.634v847.12zM733.858 156.769h76.346v-88.66h-76.346v88.66zM733.858 323.59h76.346v-88.634h-76.346v88.634zM733.858 490.464h76.346v-88.66h-76.346v88.66zM733.858 657.311h76.346v-88.66h-76.346v88.66zM733.858 824.132h76.346v-88.634h-76.346v88.634zM627.543 64.687h-378.958c-22.295 0-40.39 18.095-40.39 40.416v235.105c0 22.321 18.069 40.416 40.39 40.416h378.958c22.347 0 40.416-18.095 40.416-40.416v-235.105c0-22.321-18.069-40.416-40.416-40.416zM627.543 515.351h-378.958c-22.295 0-40.39 18.069-40.39 40.39v235.131c0 22.295 18.069 40.39 40.39 40.39h378.958c22.347 0 40.416-18.069 40.416-40.39v-235.131c0-22.295-18.069-40.39-40.416-40.39zM66.495 156.769h76.346v-88.66h-76.346v88.66zM66.495 323.59h76.346v-88.634h-76.346v88.634zM66.495 490.464h76.346v-88.66h-76.346v88.66zM66.495 657.311h76.346v-88.66h-76.346v88.66zM66.495 824.132h76.346v-88.634h-76.346v88.634z" />
<glyph unicode="&#xe912;" glyph-name="download" horiz-adv-x="912" d="M237.819 660.562c11.605 11.605 26.829 17.42 42.028 17.42 15.224 0 30.423-5.815 42.028-17.42l74.398-74.398v314.338c0 32.844 26.605 59.448 59.448 59.448 32.819 0 59.423-26.605 59.423-59.448v-318.356l78.441 78.416c11.605 11.605 26.804 17.42 42.003 17.42 15.224 0 30.423-5.815 42.028-17.42 14.276-14.251 19.716-34.017 16.422-52.51 0-0.025-0.025-0.025-0.025-0.050-0.25-1.323-0.674-2.621-0.998-3.918-0.499-2.047-1.048-4.093-1.797-6.065-0.499-1.348-1.048-2.645-1.672-3.968-0.923-2.047-1.997-4.043-3.17-6.015-0.624-1.048-1.198-2.096-1.897-3.095-2.047-2.945-4.268-5.765-6.863-8.386l-177.422-177.422c-11.63-11.63-26.829-17.37-42.028-17.37-0.15 0-0.275 0-0.424 0s-0.299 0-0.449 0c-15.174 0-30.398 5.74-42.003 17.37l-177.422 177.422c-2.621 2.621-4.842 5.441-6.838 8.361-0.724 1.048-1.298 2.096-1.922 3.145-1.173 1.972-2.221 3.943-3.17 5.99-0.599 1.323-1.198 2.645-1.672 4.018-0.724 1.922-1.248 3.918-1.772 5.89-0.324 1.373-0.799 2.72-1.048 4.118-3.344 18.468 2.071 38.235 16.372 52.485zM912.715 78.831v0c0-80.238-78.666-143.080-179.094-143.080h-554.727c-100.428 0-179.094 62.843-179.094 143.080v386.14c0 67.809 56.279 123.040 134.32 138.563 3.369-33.468 18.044-64.49 42.153-88.599l22.986-23.011h-20.365c-40.656 0-62.992-20.24-62.992-26.954v-386.14c0-6.738 22.337-26.979 62.992-26.979h554.727c40.656 0 62.992 20.265 62.992 26.979v386.14c0 6.714-22.337 26.954-62.992 26.954h-17.445l23.011 23.011c23.959 23.959 38.559 54.781 42.053 88 76.544-16.297 131.475-71.004 131.475-137.989v-386.115z" />
<glyph unicode="&#xe913;" glyph-name="world" d="M512 960.076c-282.357 0-512.076-229.693-512.076-512.076 0-282.357 229.718-512.076 512.076-512.076s512.076 229.718 512.076 512.076c0 282.383-229.718 512.076-512.076 512.076zM512 24.009c-52.185 0-102.148 9.543-148.349 26.837 18.733 16.713 38.072 53.447 41.909 65.288 4.62 14.264-10.881 51.579-10.881 58.925-0.025 7.347-44.030 58.723-55.037 66.070-11.033 7.347 0 47.741 0 73.695s-58.749 40.092-80.764 54.76c-22.015 14.693-29.362-40.369-55.063-29.336-25.701 11.007-22.015 47.691-25.701 77.052-2.651 21.283-59.077 27.822-90.080 29.816 0 0.278 0 0.581 0 0.884 0 185.84 120.275 344.060 287.028 401.142-1.591-1.591-3.206-3.156-4.469-4.948-14.239-20.248-40.596 0.025-33.426-63.015 7.195-63.015-2.398-92.276 43.146-101.264 45.494-9.013 62.283 2.247 93.463 0 31.129-2.247 29.336-80.562 36.532-81.9 0 0 40.899-112.675 160.846-144.839 25.474-6.842-26.383-59.178-62.308-74.907-35.951-15.754-69.479-18.001-74.275-56.275-4.822-38.249 50.291-15.729 64.682-22.495s76.447-30.372 101.845 4.772c25.398 35.143 129.313 23.227 119.82 60.768-21.561 85.106 120.401 123.784 79.097 180.058-9.442 12.876-7.549 52.159-10.376 95.28 29.564-57.789 46.353-123.153 46.353-192.379 0-233.783-190.207-423.991-423.991-423.991z" />
<glyph unicode="&#xe914;" glyph-name="shield" d="M512 960.426v0l-511.087-217.524c0 0 33.971-807.146 511.087-807.146 477.055 0 511.026 807.146 511.026 807.146l-511.026 217.524zM455.016 188.165l-0.365-0.365-202.304 225.438 84.319 74.152 121.821-88.459 294.78 242.606 64.776-85.11-362.722-368.628-0.304 0.365z" />
<glyph unicode="&#xe915;" glyph-name="add" d="M455.141 960.539c131.341 0 237.784-106.873 237.784-238.808 0-131.88-106.442-238.808-237.784-238.808s-237.784 106.927-237.784 238.808c0 131.934 106.496 238.808 237.784 238.808zM553.229 152.28v0-97.118h-445.009c0 235.358 127.461 319.111 211.106 394.294 40.529-21.827 86.717-34.385 135.815-34.762 49.098 0.377 95.34 12.935 135.815 34.762 37.457-33.684 83.699-69.147 123.365-119.107h-38.211v-123.419h-122.88v-54.649zM816.613 65.832v-123.419h-86.070v123.419h-122.88v86.447h122.88v123.419h86.070v-123.419h122.88v-86.447h-122.88z" />
<glyph unicode="&#xe916;" glyph-name="pen" d="M512-63.968c-282.752 0-512 229.248-512 512 0 282.72 229.248 512 512 512s512-229.28 512-512c0-282.752-229.248-512-512-512zM512 864c-229.376 0-416-186.592-416-415.968s186.624-416 416-416c229.376 0 416 186.624 416 416s-186.624 415.968-416 415.968zM486.784 302.112h277.376v-50.528h-327.808l50.432 50.528zM663.296 557.024l-95.808 95.904 45.376 45.44c10.080 10.080 25.216 10.080 35.296 0l58.016-58.048c10.080-10.112 10.080-25.248 0-35.36l-42.88-47.936zM355.648 251.584h-95.808v95.936l277.376 280.16 95.808-95.904-277.376-280.192z" />
<glyph unicode="&#xe917;" glyph-name="random" d="M1024 704l-256 256v-192c-130.752 0-230.784-31.232-305.664-95.424-5.248-4.48-10.304-9.088-15.168-13.76 27.52-38.144 48.704-77.504 67.776-115.072 48.32 58.432 118.080 96.256 253.056 96.256v-384c-216.448 0-265.152 97.344-326.784 220.608-34.304 68.672-69.76 139.584-135.552 195.968-74.944 64.192-174.912 95.424-305.664 95.424v-128c216.448 0 265.152-97.344 326.72-220.608 34.368-68.608 69.824-139.52 135.616-195.968 74.88-64.192 174.912-95.424 305.664-95.424v-192l256 256-256 256 256 256zM0 256v-128c130.752 0 230.72 31.232 305.664 95.424 5.248 4.48 10.24 9.088 15.168 13.76-27.52 38.208-48.768 77.568-67.776 115.136-48.32-58.432-118.080-96.32-253.056-96.32z" />
<glyph unicode="&#xe918;" glyph-name="shoping_cart" d="M1003.287 661.737l-151.831-384.465c-5.679-14.243-19.735-23.692-35.468-23.692h-402.479c-15.732 0-29.789 9.449-35.468 23.692l-146.246 370.316-69.073 74.659h-111.616c-27.974 0.047-50.641 22.109-50.641 49.292 0 27.229 22.668 49.292 50.641 49.292 0 0 0 0 0 0h134.191c14.336 0 28.020-5.911 37.609-16.337l85.597-92.532h659.363c12.521 0 24.204-6.004 31.279-16.012 7.121-10.054 8.657-22.854 4.143-34.211zM472.436 214.668c41.937 0 75.916-33.14 75.916-73.961s-33.978-73.914-75.916-73.914c-41.937 0-75.962 33.094-75.962 73.914s34.025 73.961 75.962 73.961zM751.476 214.668c41.937 0 75.962-33.14 75.962-73.961s-34.025-73.914-75.962-73.914c-41.937 0-75.916 33.094-75.916 73.914s33.978 73.961 75.916 73.961z" />
<glyph unicode="&#xe919;" glyph-name="settings" d="M512-63.968c-282.752 0-512 229.248-512 512 0 282.72 229.248 512 512 512s512-229.28 512-512c0-282.752-229.248-512-512-512zM512 864c-229.376 0-416-186.592-416-415.968s186.624-416 416-416c229.376 0 416 186.624 416 416s-186.624 415.968-416 415.968zM799.776 505.376v-114.912l-77.792-4.992c-4.352-14.688-10.176-28.736-17.344-41.952l51.456-58.56-81.248-81.248-58.56 51.456c-13.216-7.136-27.232-12.96-41.92-17.312l-5.024-77.824h-114.88l-5.024 77.824c-14.688 4.352-28.704 10.176-41.92 17.312l-58.56-51.456-81.248 81.28 51.456 58.528c-7.168 13.216-12.992 27.264-17.344 41.952l-77.792 5.024v114.88l77.792 5.024c4.352 14.656 10.176 28.704 17.344 41.92l-51.456 58.528 81.248 81.28 58.528-51.456c13.216 7.168 27.264 12.96 41.952 17.312l5.024 77.824h114.88l5.024-77.824c14.656-4.352 28.704-10.144 41.92-17.312l58.56 51.456 81.248-81.28-51.456-58.528c7.168-13.216 12.992-27.264 17.344-41.92l77.792-5.024zM511.904 550.88c-56.864 0-102.976-46.112-102.976-102.976s46.112-102.976 102.976-102.976c56.896 0 102.976 46.112 102.976 102.976s-46.080 102.976-102.976 102.976z" />
<glyph unicode="&#xe91a;" glyph-name="skype" d="M949.248 378.661c3.365 22.382 5.705 44.983 5.705 68.169 0 252.123-204.434 456.411-456.485 456.411-23.625 0-46.592-2.267-69.193-5.705-45.495 38.912-104.448 62.537-168.96 62.537-143.726 0-260.315-116.59-260.315-260.315 0-58.734 19.602-112.713 52.443-156.233-6.729-31.159-10.459-63.488-10.459-96.695 0-252.197 204.288-456.558 456.485-456.558 32.329 0 63.927 3.511 94.427 9.947 45.714-39.863 105.326-64.219 170.789-64.219 143.799 0 260.315 116.59 260.315 260.315 0 71.095-28.526 135.387-74.752 182.345zM711.461 248.027c-17.993-25.527-44.325-45.568-78.921-59.977-34.67-14.555-75.776-21.797-123.246-21.797-56.905 0-103.936 9.874-140.946 29.696-26.185 14.19-47.543 33.207-63.927 57.051-16.384 23.625-24.576 46.811-24.576 69.193 0 13.093 4.901 24.21 14.702 33.499 9.874 9.289 22.455 13.897 37.595 13.897 12.361 0 22.821-3.584 31.305-10.898 8.558-7.168 15.872-17.92 21.87-32.11 7.314-16.896 15.287-31.013 23.845-42.277 8.485-11.41 20.48-20.773 35.986-28.087 15.506-7.387 35.84-11.045 61.001-11.045 34.67 0 62.83 7.314 84.407 22.235 21.65 14.775 32.549 33.353 32.549 55.589 0 17.554-5.851 31.817-17.554 42.789s-26.77 19.383-45.275 25.161c-18.505 5.778-43.227 11.995-74.24 18.432-41.399 8.923-76.142 19.383-104.082 31.305-27.941 11.995-50.103 28.233-66.487 48.859-16.457 20.699-24.576 46.299-24.576 76.873 0 29.257 8.558 55.15 25.966 77.751 17.262 22.674 42.277 40.155 75.191 52.297 32.768 12.215 71.314 18.213 115.712 18.213 35.401 0 66.048-3.95 91.867-11.995 25.893-8.119 47.323-18.871 64.366-32.183 17.042-13.458 29.55-27.502 37.376-42.203 7.899-14.702 11.776-29.038 11.776-43.008 0-12.8-4.901-24.357-14.702-34.597-9.874-10.24-22.162-15.433-36.791-15.433-13.385 0-23.625 3.145-30.501 9.289-6.949 6.144-14.555 16.165-22.601 30.135-10.606 20.041-23.113 35.694-37.888 46.958-14.702 11.118-38.254 16.75-70.802 16.75-30.135 0-54.491-6.071-72.997-18.213-18.578-12.142-27.721-26.843-27.721-43.959 0-10.606 3.145-19.822 9.435-27.502 6.217-7.753 14.921-14.336 25.966-19.895 10.971-5.559 22.162-9.874 33.426-13.093 11.264-3.072 29.915-7.68 55.881-13.678 32.549-7.022 61.952-14.775 88.357-23.186 26.331-8.485 48.786-18.725 67.291-30.72 18.578-12.142 32.987-27.355 43.301-45.787 10.386-18.432 15.579-41.106 15.579-67.877 0-32.037-8.997-60.855-26.917-86.455z" />
<glyph unicode="&#xe91b;" glyph-name="phone" d="M943.189 285.781c-63.232 0-125.099 9.899-183.723 29.184-28.16 9.813-62.635 0.939-79.957-16.896l-116.224-87.808c-133.376 71.253-218.709 156.501-288.939 288.939l85.419 113.493c21.504 21.504 29.184 52.992 19.968 82.432-19.541 59.051-29.44 121.003-29.44 184.064 0 44.544-36.267 80.811-80.811 80.811h-188.672c-44.544 0-80.811-36.267-80.811-80.811 0-520.021 423.083-943.189 943.189-943.189 44.544 0 80.811 36.267 80.811 80.811v188.16c0 44.544-36.267 80.811-80.811 80.811z" />
<glyph unicode="&#xe91c;" glyph-name="clock" d="M512-64c-282.77 0-512 229.23-512 512s229.23 512 512 512c282.77 0 512-229.23 512-512s-229.23-512-512-512zM512 813.714c-201.947 0-365.714-163.694-365.714-365.714 0-201.947 163.767-365.714 365.714-365.714s365.714 163.767 365.714 365.714c0 202.021-163.767 365.714-365.714 365.714zM731.429 374.857h-219.429c-40.375 0-73.143 32.768-73.143 73.143v146.286c0 40.375 32.768 73.143 73.143 73.143s73.143-32.768 73.143-73.143v-73.143h146.286c40.375 0 73.143-32.768 73.143-73.143s-32.768-73.143-73.143-73.143z" />
<glyph unicode="&#xe91d;" glyph-name="envelope" d="M102.4 813.714c-56.759 0-102.4-46.592-102.4-104.521v-522.386c0-57.929 45.641-104.521 102.4-104.521h819.2c56.759 0 102.4 46.592 102.4 104.521v522.386c0 57.929-45.641 104.521-102.4 104.521h-819.2zM187.758 692.37c13.605 0 27.209-5.778 36.791-15.799l272.018-275.895c5.12-5.266 26.185-4.754 31.451 0.512l272.53 275.383c19.090 19.383 53.76 19.237 72.777-0.293s18.871-54.93-0.293-74.24l-159.451-161.134 157.842-146.359c19.895-18.578 21.358-53.833 3.218-74.021-18.139-20.261-52.663-21.797-72.485-3.291l-161.646 150.235-40.521-40.814c-49.152-49.664-126.83-49.81-175.982 0l-40.009 40.229-161.061-149.65c-19.822-18.505-54.418-16.969-72.558 3.291-18.139 20.187-16.603 55.442 3.218 74.021l157.842 146.359-159.451 161.134c-14.117 13.678-19.383 36.059-13.019 54.857 4.754 22.747 28.014 32.987 48.786 35.474v0z" />
<glyph unicode="&#xe91e;" glyph-name="fax" d="M994.523 229.669h-116.297v-167.205c0-30.427-23.918-53.321-57.198-53.321h-617.326c-33.353 0-58.002 22.894-58.002 53.321v167.205h-115.566c-16.677 0-30.135 14.629-30.135 29.769v304.421c0 15.214 13.458 30.501 30.135 30.501h115.566v237.568c0 30.354 24.649 54.93 58.002 54.93h617.253c33.353 0 57.271-24.576 57.271-54.93v-237.568h116.297c16.677 0 29.477-15.287 29.477-30.501v-304.421c0-15.141-12.8-29.769-29.477-29.769zM770.194 774.802h-515.291v-180.443h515.291v180.443zM770.194 375.954h-515.291v-254.757h515.291v254.757zM658.432 229.888h-292.206v71.68h292.206v-71.68z" />
<glyph unicode="&#xe91f;" glyph-name="globe" d="M990.281 630.784c-26.039 68.096-66.121 129.317-116.882 179.858-91.502 91.209-217.381 147.895-356.425 149.211-1.682 0-3.291 0.146-4.974 0.146-92.014 0-178.249-24.357-252.855-66.853-108.617-61.806-192.293-162.158-232.594-282.478-17.042-50.761-26.405-104.96-26.551-161.426 0-0.439 0-0.805 0-1.243 0-30.354 2.779-59.977 7.826-88.869 7.022-40.009 18.578-78.409 34.304-114.615 78.117-180.078 256.585-306.395 464.896-308.37 1.682 0 3.291-0.146 4.974-0.146 91.721 0 177.81 24.283 252.27 66.56 155.063 87.991 259.73 254.464 259.73 445.44 0 64.439-11.995 126.025-33.719 182.784zM328.85 729.527c4.169 21.65 9.728 40.887 16.384 57.563 45.202 22.309 95.451 35.84 148.626 38.327 13.312-10.971 26.99-24.576 40.521-40.667 15.872-18.798 31.744-40.96 47.031-66.267 36.206-59.904 69.413-137.216 92.965-228.645 4.462-17.335 8.411-34.597 11.849-51.785-50.176-28.818-110.007-55.589-177.957-77.239-45.568-14.482-91.063-25.454-135.168-32.622-8.558 24.722-16.457 50.688-23.479 77.97-23.186 89.966-31.744 172.837-29.477 242.322 1.024 29.623 4.023 56.759 8.704 81.042zM134.144 448c0 34.889 4.827 68.608 13.678 100.645 12.873 46.665 34.377 89.746 62.83 127.342 13.239 17.408 27.941 33.646 43.886 48.494-1.39-9.143-2.633-18.505-3.584-28.087-2.706-26.039-3.877-53.614-3.365-82.578 1.243-69.047 11.703-145.481 32.329-225.573 5.998-23.552 12.8-46.373 20.114-68.535-15.579-1.097-30.939-1.829-45.861-1.829-37.888 0-71.753 3.657-100.498 10.24-12.581 37.669-19.529 77.97-19.529 119.881zM190.61 249.271c20.041-2.121 41.179-3.365 63.561-3.365 23.259 0 47.397 1.317 71.973 3.657 27.429-65.755 60.123-122.953 95.598-168.521-97.28 23.845-179.785 85.358-231.131 168.229zM696.686 176.494c-4.315-25.819-10.459-48.494-18.139-67.657-45.129-22.235-95.378-35.767-148.48-38.254-44.032 36.206-91.136 101.303-130.121 189.294 42.862 7.68 86.528 18.432 130.194 32.329 61.733 19.749 118.272 43.52 168.302 70.071 7.899-67.438 7.461-130.999-1.755-185.783zM744.082 507.831c-20.699 80.384-49.298 153.454-82.725 215.479-13.751 25.527-28.306 49.152-43.447 70.583-5.193 7.241-10.386 14.263-15.726 21.065 20.334-4.974 39.936-11.557 58.807-19.675 48.64-20.846 91.941-51.712 127.561-89.893 28.014-30.062 51.127-64.731 68.169-102.693-12.8-37.23-49.445-80.603-105.911-122.587-2.121 9.216-4.315 18.432-6.729 27.721zM768.585 170.715c10.752 68.535 9.582 148.041-2.926 231.351 50.176 33.353 90.624 69.486 119.296 106.423 3.218-19.675 4.901-39.863 4.901-60.489 0-109.641-46.665-208.238-121.271-277.285z" />
<glyph unicode="&#xe920;" glyph-name="pin_small" horiz-adv-x="731" d="M365.714-64c0 0-365.714 440.101-365.714 647.826 0 207.799 163.767 376.174 365.714 376.174s365.714-168.375 365.714-376.174c0-207.726-365.714-647.826-365.714-647.826zM365.714 740.571c-80.823 0-146.286-65.463-146.286-146.286 0-80.75 65.463-146.286 146.286-146.286 80.75 0 146.286 65.536 146.286 146.286 0 80.823-65.536 146.286-146.286 146.286z" />
</font>
</defs>
</svg>
